<?xml version="1.0" encoding="UTF-8" standalone="no"?><!DOCTYPE svg PUBLIC "-//W3C//DTD SVG 1.1//EN" "http://www.w3.org/Graphics/SVG/1.1/DTD/svg11.dtd"><svg width="100%" height="100%" viewBox="0 0 120 48" version="1.1" xmlns="http://www.w3.org/2000/svg" xmlns:xlink="http://www.w3.org/1999/xlink" xml:space="preserve" xmlns:serif="http://www.serif.com/" style="fill-rule:evenodd;clip-rule:evenodd;stroke-linejoin:round;stroke-miterlimit:1.41421;"><path d="M82.302,25.765l2.535,6.886l-7.606,-1.582l5.071,-5.304Z" style="fill:#ffc200;"/><path d="M38.255,25.635l-2.535,6.887l7.606,-1.583l-5.071,-5.304Z" style="fill:#ffc200;"/><path d="M77.653,31.092l-1.643,-11.19l14.565,0.719l0.821,5.596l-13.743,4.875Z" style="fill:#ff7b00;"/><path d="M42.761,30.74l1.643,-11.19l-14.564,0.719l-0.821,5.596l13.742,4.875Z" style="fill:#ff7b00;"/><path d="M91.618,26.041l0.023,-11.235l-62.876,-0.129l-0.023,11.235l62.876,0.129Z" style="fill:#ffac00;"/><path d="M46.147,21.515l-2.054,0l-0.581,2.033l-0.768,0l2.189,-7.376l0.425,0l2.189,7.376l-0.809,0l-0.591,-2.033Zm-1.847,-0.695l1.66,0l-0.633,-2.241l-0.197,-1.09l-0.021,0l-0.197,1.111l-0.612,2.22Z" style="fill-rule:nonzero;"/><path d="M48.211,16.286l0.747,0l0,2.469l0.031,0c0.284,-0.346 0.661,-0.519 1.131,-0.519c0.533,0 0.932,0.211 1.198,0.633c0.267,0.422 0.4,1.09 0.4,2.003c0,0.933 -0.178,1.628 -0.534,2.085c-0.357,0.456 -0.86,0.685 -1.51,0.685c-0.318,0 -0.609,-0.037 -0.871,-0.109c-0.263,-0.073 -0.46,-0.158 -0.592,-0.255l0,-6.992Zm0.747,6.505c0.097,0.055 0.216,0.098 0.358,0.13c0.142,0.031 0.292,0.046 0.451,0.046c0.36,0 0.645,-0.171 0.856,-0.513c0.211,-0.343 0.317,-0.87 0.317,-1.582c0,-0.298 -0.019,-0.566 -0.057,-0.804c-0.038,-0.239 -0.097,-0.445 -0.177,-0.618c-0.079,-0.173 -0.183,-0.306 -0.311,-0.399c-0.128,-0.094 -0.282,-0.14 -0.462,-0.14c-0.249,0 -0.454,0.074 -0.617,0.223c-0.162,0.149 -0.282,0.351 -0.358,0.607l0,3.05Z" style="fill-rule:nonzero;"/><path d="M52.486,20.955c0,-0.934 0.16,-1.621 0.482,-2.06c0.322,-0.439 0.78,-0.659 1.375,-0.659c0.636,0 1.105,0.225 1.405,0.675c0.301,0.449 0.452,1.131 0.452,2.044c0,0.94 -0.163,1.628 -0.488,2.064c-0.325,0.436 -0.781,0.654 -1.369,0.654c-0.637,0 -1.105,-0.225 -1.406,-0.675c-0.301,-0.449 -0.451,-1.13 -0.451,-2.043Zm0.778,0c0,0.304 0.019,0.581 0.057,0.83c0.038,0.249 0.1,0.463 0.187,0.643c0.086,0.18 0.198,0.32 0.337,0.42c0.138,0.1 0.304,0.15 0.498,0.15c0.359,0 0.629,-0.16 0.809,-0.482c0.18,-0.322 0.27,-0.842 0.27,-1.561c0,-0.298 -0.019,-0.573 -0.057,-0.825c-0.038,-0.253 -0.101,-0.469 -0.187,-0.649c-0.087,-0.179 -0.199,-0.32 -0.337,-0.42c-0.139,-0.1 -0.305,-0.15 -0.498,-0.15c-0.353,0 -0.621,0.162 -0.804,0.487c-0.184,0.325 -0.275,0.844 -0.275,1.557Z" style="fill-rule:nonzero;"/><path d="M57.87,18.361l0,3.175c0,0.525 0.054,0.9 0.161,1.125c0.107,0.225 0.302,0.337 0.586,0.337c0.145,0 0.275,-0.029 0.389,-0.088c0.114,-0.059 0.216,-0.136 0.306,-0.233c0.09,-0.097 0.17,-0.208 0.239,-0.332c0.069,-0.125 0.124,-0.253 0.166,-0.384l0,-3.6l0.747,0l0,3.714c0,0.249 0.008,0.507 0.026,0.773c0.017,0.266 0.043,0.5 0.078,0.7l-0.53,0l-0.186,-0.726l-0.031,0c-0.118,0.228 -0.288,0.427 -0.509,0.597c-0.221,0.169 -0.498,0.254 -0.83,0.254c-0.221,0 -0.415,-0.028 -0.581,-0.083c-0.166,-0.056 -0.308,-0.156 -0.425,-0.301c-0.118,-0.145 -0.206,-0.344 -0.265,-0.597c-0.058,-0.252 -0.088,-0.575 -0.088,-0.97l0,-3.361l0.747,0Z" style="fill-rule:nonzero;"/><path d="M61.18,18.361l0.632,0l0,-1.027l0.747,-0.239l0,1.266l1.121,0l0,0.674l-1.121,0l0,3.092c0,0.304 0.037,0.524 0.109,0.659c0.073,0.135 0.192,0.202 0.358,0.202c0.139,0 0.258,-0.016 0.358,-0.047c0.101,-0.031 0.209,-0.071 0.327,-0.119l0.145,0.591c-0.152,0.076 -0.32,0.137 -0.503,0.182c-0.183,0.045 -0.375,0.067 -0.576,0.067c-0.346,0 -0.593,-0.112 -0.741,-0.337c-0.149,-0.225 -0.224,-0.589 -0.224,-1.094l0,-3.196l-0.632,0l0,-0.674Z" style="fill-rule:nonzero;"/><path d="M71.305,18.776l0.094,-1.1l-0.042,0l-0.332,1.027l-1.463,3.154l-0.259,0l-1.535,-3.154l-0.322,-1.027l-0.042,0l0.146,1.1l0,4.772l-0.747,0l0,-7.262l0.653,0l1.754,3.569l0.259,0.851l0.021,0l0.249,-0.862l1.66,-3.558l0.684,0l0,7.262l-0.778,0l0,-4.772Z" style="fill-rule:nonzero;"/><path d="M76.462,23.195c-0.166,0.153 -0.377,0.27 -0.633,0.353c-0.256,0.083 -0.526,0.125 -0.81,0.125c-0.325,0 -0.606,-0.064 -0.845,-0.192c-0.239,-0.128 -0.436,-0.311 -0.591,-0.55c-0.156,-0.239 -0.27,-0.524 -0.343,-0.856c-0.072,-0.332 -0.109,-0.705 -0.109,-1.12c0,-0.886 0.163,-1.56 0.488,-2.024c0.325,-0.463 0.785,-0.695 1.38,-0.695c0.193,0 0.385,0.025 0.575,0.073c0.191,0.048 0.362,0.145 0.514,0.291c0.152,0.145 0.275,0.349 0.368,0.612c0.094,0.262 0.14,0.605 0.14,1.027c0,0.117 -0.005,0.244 -0.015,0.378c-0.011,0.135 -0.023,0.275 -0.036,0.421l-2.636,0c0,0.297 0.025,0.567 0.073,0.809c0.048,0.242 0.124,0.448 0.228,0.617c0.104,0.17 0.237,0.301 0.4,0.394c0.162,0.094 0.364,0.14 0.607,0.14c0.186,0 0.371,-0.034 0.555,-0.103c0.183,-0.07 0.323,-0.153 0.42,-0.249l0.27,0.549Zm-0.581,-2.78c0.013,-0.519 -0.059,-0.899 -0.218,-1.141c-0.159,-0.242 -0.377,-0.363 -0.654,-0.363c-0.318,0 -0.571,0.121 -0.757,0.363c-0.187,0.242 -0.298,0.622 -0.332,1.141l1.961,0Z" style="fill-rule:nonzero;"/></svg>