<?xml version="1.0" encoding="UTF-8" standalone="no"?><!DOCTYPE svg PUBLIC "-//W3C//DTD SVG 1.1//EN" "http://www.w3.org/Graphics/SVG/1.1/DTD/svg11.dtd"><svg width="100%" height="100%" viewBox="0 0 100 100" version="1.1" xmlns="http://www.w3.org/2000/svg" xmlns:xlink="http://www.w3.org/1999/xlink" xml:space="preserve" xmlns:serif="http://www.serif.com/" style="fill-rule:evenodd;clip-rule:evenodd;stroke-linejoin:round;stroke-miterlimit:1.41421;"><path d="M94.455,31.309c0,-4.453 -3.614,-8.068 -8.067,-8.068l-70.411,0c-4.453,0 -8.068,3.615 -8.068,8.068l0,45.694c0,4.452 3.615,8.067 8.068,8.067l70.411,0c4.453,0 8.067,-3.615 8.067,-8.067l0,-45.694Z" style="fill:#502803;"/><path d="M92.979,31.767c0,-4.264 -3.461,-7.726 -7.725,-7.726l-71.096,0c-4.263,0 -7.725,3.462 -7.725,7.726l0,43.755c0,4.264 3.462,7.725 7.725,7.725l71.096,0c4.264,0 7.725,-3.461 7.725,-7.725l0,-43.755Z" style="fill:#6f3804;"/><path d="M36.27,20.488c0,-0.313 -0.254,-0.566 -0.566,-0.566l-1.131,0c-0.313,0 -0.566,0.253 -0.566,0.566l0,3.547c0,0.313 0.253,0.566 0.566,0.566l1.131,0c0.312,0 0.566,-0.253 0.566,-0.566l0,-3.547Z" style="fill:#b1afad;"/><path d="M65.602,20.358c0,-0.313 -0.253,-0.566 -0.565,-0.566l-1.132,0c-0.312,0 -0.565,0.253 -0.565,0.566l0,3.547c0,0.313 0.253,0.566 0.565,0.566l1.132,0c0.312,0 0.565,-0.253 0.565,-0.566l0,-3.547Z" style="fill:#b1afad;"/><path d="M94.401,28.841c0,-2.728 -2.214,-4.942 -4.941,-4.942l-78.728,0c-2.727,0 -4.941,2.214 -4.941,4.942l0,21.035c0,2.727 2.214,4.941 4.941,4.941l78.728,0c2.727,0 4.941,-2.214 4.941,-4.941l0,-21.035Z" style="fill:#4a2605;"/><path d="M93.817,28.214c0,-2.727 -2.214,-4.941 -4.941,-4.941l-78.728,0c-2.727,0 -4.941,2.214 -4.941,4.941l0,21.035c0,2.727 2.214,4.941 4.941,4.941l78.728,0c2.727,0 4.941,-2.214 4.941,-4.941l0,-21.035Z" style="fill:#542b05;"/><path d="M65.402,21.443c0.011,-5.199 -6.937,-9.435 -15.507,-9.453c-8.57,-0.018 -15.537,4.188 -15.548,9.387c3.626,-1.552 9.34,-2.806 15.534,-2.793c6.194,0.013 11.902,1.291 15.521,2.859Z" style="fill:#6f3804;"/><path d="M46.974,23.891l8.863,0.014l-0.762,33.7l-7.44,-0.011l-0.661,-33.703Z" style="fill:#502803;"/><path d="M46.098,23.257l8.863,0.014l-0.777,43.254l-7.439,-0.011l-0.647,-43.257Z" style="fill:#6f3804;"/><path d="M56.373,50.79c0,-1.328 -1.077,-2.405 -2.404,-2.405l-6.196,0c-1.327,0 -2.404,1.077 -2.404,2.405l0,4.809c0,1.327 1.077,2.404 2.404,2.404l6.196,0c1.327,0 2.404,-1.077 2.404,-2.404l0,-4.809Z" style="fill:#666;"/><path d="M55.934,50.397c0,-1.327 -1.077,-2.404 -2.404,-2.404l-6.195,0c-1.327,0 -2.405,1.077 -2.405,2.404l0,4.81c0,1.327 1.078,2.404 2.405,2.404l6.195,0c1.327,0 2.404,-1.077 2.404,-2.404l0,-4.81Z" style="fill:#9a958f;"/><path d="M54.677,50.088c0,-0.514 -0.417,-0.931 -0.931,-0.931l-6.216,0c-0.514,0 -0.931,0.417 -0.931,0.931l0,1.862c0,0.514 0.417,0.932 0.931,0.932l6.216,0c0.514,0 0.931,-0.418 0.931,-0.932l0,-1.862Z" style="fill:#4d4d4d;"/><path d="M54.541,49.74c0,-0.514 -0.417,-0.931 -0.931,-0.931l-6.216,0c-0.514,0 -0.931,0.417 -0.931,0.931l0,1.862c0,0.514 0.417,0.931 0.931,0.931l6.216,0c0.514,0 0.931,-0.417 0.931,-0.931l0,-1.862Z" style="fill:#9a958f;"/><path d="M12.673,63.271c0.327,-0.092 0.675,-0.154 1.044,-0.184c0.368,-0.031 0.732,-0.047 1.09,-0.047c0.409,0 0.813,0.047 1.213,0.139c0.399,0.092 0.76,0.261 1.082,0.506c0.322,0.246 0.583,0.584 0.783,1.014c0.2,0.429 0.299,0.977 0.299,1.642c0,0.645 -0.094,1.193 -0.284,1.643c-0.189,0.45 -0.44,0.816 -0.752,1.098c-0.312,0.281 -0.67,0.486 -1.075,0.614c-0.404,0.128 -0.821,0.192 -1.251,0.192c-0.041,0 -0.107,0 -0.199,0c-0.093,0 -0.19,-0.003 -0.292,-0.008c-0.103,-0.005 -0.202,-0.013 -0.3,-0.023c-0.097,-0.01 -0.166,-0.02 -0.207,-0.031l0,4.084l-1.151,0l0,-10.639Zm2.195,0.829c-0.205,0 -0.402,0.007 -0.591,0.023c-0.189,0.015 -0.34,0.038 -0.453,0.069l0,4.575c0.041,0.021 0.105,0.033 0.192,0.038c0.087,0.006 0.177,0.011 0.269,0.016c0.092,0.005 0.181,0.007 0.268,0.007c0.087,0 0.151,0 0.192,0c0.287,0 0.563,-0.035 0.829,-0.107c0.267,-0.072 0.502,-0.202 0.707,-0.391c0.204,-0.19 0.371,-0.446 0.499,-0.768c0.128,-0.323 0.192,-0.729 0.192,-1.221c0,-0.43 -0.059,-0.788 -0.177,-1.074c-0.118,-0.287 -0.271,-0.517 -0.461,-0.691c-0.189,-0.174 -0.412,-0.297 -0.667,-0.369c-0.256,-0.071 -0.522,-0.107 -0.799,-0.107Z" style="fill-rule:nonzero;"/><path d="M23.665,73.388c-0.245,0.225 -0.557,0.399 -0.936,0.522c-0.379,0.123 -0.778,0.184 -1.198,0.184c-0.481,0 -0.898,-0.094 -1.251,-0.284c-0.353,-0.189 -0.645,-0.46 -0.875,-0.813c-0.23,-0.353 -0.399,-0.776 -0.507,-1.267c-0.107,-0.491 -0.161,-1.044 -0.161,-1.658c0,-1.31 0.241,-2.308 0.722,-2.994c0.481,-0.686 1.161,-1.028 2.042,-1.028c0.286,0 0.57,0.035 0.852,0.107c0.281,0.072 0.534,0.215 0.76,0.43c0.225,0.215 0.406,0.517 0.545,0.906c0.138,0.389 0.207,0.895 0.207,1.52c0,0.174 -0.008,0.361 -0.023,0.56c-0.015,0.2 -0.033,0.407 -0.054,0.622l-3.899,0c0,0.44 0.035,0.839 0.107,1.197c0.072,0.359 0.184,0.663 0.338,0.914c0.153,0.251 0.35,0.445 0.591,0.583c0.24,0.138 0.54,0.208 0.898,0.208c0.276,0 0.55,-0.052 0.821,-0.154c0.272,-0.102 0.479,-0.225 0.622,-0.368l0.399,0.813Zm-0.859,-4.114c0.02,-0.768 -0.087,-1.331 -0.323,-1.689c-0.235,-0.358 -0.558,-0.537 -0.967,-0.537c-0.471,0 -0.844,0.179 -1.121,0.537c-0.276,0.358 -0.44,0.921 -0.491,1.689l2.902,0Z" style="fill-rule:nonzero;"/><path d="M25.416,66.234l0.783,0l0.199,0.814l0.046,0c0.143,-0.297 0.33,-0.53 0.561,-0.699c0.23,-0.169 0.509,-0.253 0.836,-0.253c0.236,0 0.502,0.046 0.799,0.138l-0.215,1.121c-0.266,-0.093 -0.502,-0.139 -0.707,-0.139c-0.327,0 -0.593,0.095 -0.798,0.284c-0.205,0.19 -0.338,0.443 -0.399,0.76l0,5.65l-1.105,0l0,-7.676Z" style="fill-rule:nonzero;"/><path d="M29.499,72.651c0.205,0.123 0.448,0.228 0.73,0.315c0.281,0.087 0.57,0.131 0.867,0.131c0.338,0 0.624,-0.085 0.86,-0.254c0.235,-0.169 0.353,-0.442 0.353,-0.821c0,-0.317 -0.072,-0.578 -0.215,-0.783c-0.143,-0.205 -0.325,-0.389 -0.545,-0.553c-0.22,-0.164 -0.458,-0.315 -0.714,-0.453c-0.256,-0.138 -0.494,-0.304 -0.714,-0.499c-0.22,-0.194 -0.402,-0.424 -0.545,-0.691c-0.143,-0.266 -0.215,-0.603 -0.215,-1.013c0,-0.655 0.177,-1.149 0.53,-1.481c0.353,-0.333 0.852,-0.499 1.497,-0.499c0.419,0 0.783,0.038 1.09,0.115c0.307,0.077 0.573,0.181 0.798,0.314l-0.291,0.922c-0.195,-0.103 -0.42,-0.187 -0.676,-0.254c-0.256,-0.066 -0.517,-0.099 -0.783,-0.099c-0.368,0 -0.637,0.076 -0.806,0.23c-0.169,0.153 -0.253,0.394 -0.253,0.721c0,0.256 0.071,0.474 0.215,0.653c0.143,0.179 0.325,0.343 0.545,0.491c0.22,0.149 0.458,0.3 0.714,0.453c0.255,0.154 0.493,0.335 0.713,0.545c0.22,0.21 0.402,0.461 0.545,0.752c0.144,0.292 0.215,0.658 0.215,1.098c0,0.287 -0.046,0.558 -0.138,0.814c-0.092,0.256 -0.233,0.478 -0.422,0.668c-0.189,0.189 -0.425,0.34 -0.706,0.453c-0.282,0.112 -0.612,0.168 -0.99,0.168c-0.451,0 -0.84,-0.043 -1.167,-0.13c-0.328,-0.087 -0.604,-0.202 -0.829,-0.345l0.337,-0.968Z" style="fill-rule:nonzero;"/><path d="M34.474,70.072c0,-1.382 0.238,-2.398 0.714,-3.047c0.476,-0.65 1.154,-0.975 2.034,-0.975c0.942,0 1.635,0.332 2.08,0.998c0.445,0.665 0.668,1.673 0.668,3.024c0,1.392 -0.24,2.41 -0.722,3.055c-0.481,0.645 -1.156,0.967 -2.026,0.967c-0.942,0 -1.635,-0.332 -2.08,-0.997c-0.446,-0.666 -0.668,-1.674 -0.668,-3.025Zm1.151,0c0,0.45 0.028,0.86 0.085,1.228c0.056,0.369 0.148,0.686 0.276,0.952c0.128,0.266 0.294,0.474 0.499,0.622c0.205,0.148 0.45,0.223 0.737,0.223c0.532,0 0.931,-0.238 1.197,-0.714c0.267,-0.476 0.4,-1.246 0.4,-2.311c0,-0.44 -0.029,-0.847 -0.085,-1.22c-0.056,-0.374 -0.148,-0.694 -0.276,-0.96c-0.128,-0.266 -0.294,-0.473 -0.499,-0.622c-0.205,-0.148 -0.451,-0.222 -0.737,-0.222c-0.522,0 -0.919,0.24 -1.19,0.721c-0.271,0.481 -0.407,1.249 -0.407,2.303Z" style="fill-rule:nonzero;"/><path d="M45.374,73.91l0,-4.682c0,-0.768 -0.089,-1.323 -0.268,-1.666c-0.18,-0.343 -0.499,-0.514 -0.96,-0.514c-0.409,0 -0.747,0.122 -1.013,0.368c-0.266,0.246 -0.461,0.548 -0.584,0.906l0,5.588l-1.105,0l0,-7.676l0.798,0l0.2,0.814l0.046,0c0.194,-0.277 0.458,-0.512 0.791,-0.707c0.332,-0.194 0.729,-0.291 1.189,-0.291c0.328,0 0.617,0.046 0.868,0.138c0.251,0.092 0.46,0.248 0.629,0.468c0.169,0.22 0.297,0.514 0.384,0.883c0.087,0.368 0.131,0.834 0.131,1.397l0,4.974l-1.106,0Z" style="fill-rule:nonzero;"/><path d="M48.107,66.694c0.297,-0.184 0.658,-0.327 1.082,-0.429c0.425,-0.103 0.873,-0.154 1.344,-0.154c0.43,0 0.775,0.064 1.036,0.192c0.261,0.128 0.466,0.302 0.614,0.522c0.149,0.22 0.246,0.471 0.292,0.752c0.046,0.282 0.069,0.576 0.069,0.883c0,0.614 -0.013,1.213 -0.038,1.796c-0.026,0.584 -0.039,1.136 -0.039,1.658c0,0.389 0.013,0.75 0.039,1.083c0.025,0.332 0.074,0.647 0.145,0.944l-0.844,0l-0.261,-0.906l-0.061,0c-0.154,0.266 -0.379,0.497 -0.676,0.691c-0.297,0.194 -0.696,0.292 -1.197,0.292c-0.553,0 -1.006,-0.192 -1.359,-0.576c-0.353,-0.384 -0.53,-0.913 -0.53,-1.589c0,-0.44 0.074,-0.809 0.223,-1.105c0.148,-0.297 0.358,-0.538 0.629,-0.722c0.272,-0.184 0.594,-0.315 0.968,-0.392c0.373,-0.076 0.79,-0.115 1.251,-0.115c0.102,0 0.204,0 0.307,0c0.102,0 0.21,0.005 0.322,0.016c0.031,-0.318 0.046,-0.599 0.046,-0.845c0,-0.583 -0.087,-0.993 -0.261,-1.228c-0.174,-0.235 -0.491,-0.353 -0.952,-0.353c-0.286,0 -0.598,0.043 -0.936,0.13c-0.338,0.087 -0.619,0.197 -0.844,0.331l-0.369,-0.876Zm3.332,3.716c-0.103,-0.01 -0.205,-0.018 -0.307,-0.023c-0.103,-0.005 -0.205,-0.008 -0.308,-0.008c-0.245,0 -0.486,0.021 -0.721,0.062c-0.235,0.04 -0.445,0.112 -0.63,0.214c-0.184,0.103 -0.33,0.241 -0.437,0.415c-0.108,0.174 -0.161,0.394 -0.161,0.66c0,0.41 0.099,0.727 0.299,0.952c0.2,0.225 0.458,0.338 0.775,0.338c0.43,0 0.763,-0.103 0.998,-0.307c0.236,-0.205 0.399,-0.43 0.492,-0.676l0,-1.627Z" style="fill-rule:nonzero;"/><path d="M55.507,72.083c0,0.359 0.049,0.614 0.146,0.768c0.097,0.153 0.233,0.23 0.407,0.23c0.215,0 0.466,-0.056 0.752,-0.169l0.108,0.891c-0.133,0.082 -0.32,0.148 -0.561,0.199c-0.24,0.052 -0.458,0.077 -0.652,0.077c-0.389,0 -0.704,-0.12 -0.945,-0.361c-0.24,-0.24 -0.36,-0.662 -0.36,-1.266l0,-9.289l1.105,0l0,8.92Z" style="fill-rule:nonzero;"/><path d="M61.157,72.482c0.194,0.134 0.468,0.259 0.821,0.377c0.353,0.117 0.755,0.176 1.206,0.176c0.573,0 1.038,-0.141 1.397,-0.422c0.358,-0.282 0.537,-0.724 0.537,-1.328c0,-0.399 -0.102,-0.747 -0.307,-1.044c-0.205,-0.297 -0.461,-0.571 -0.768,-0.821c-0.307,-0.251 -0.637,-0.497 -0.99,-0.737c-0.353,-0.241 -0.683,-0.507 -0.99,-0.799c-0.307,-0.291 -0.563,-0.627 -0.768,-1.005c-0.205,-0.379 -0.307,-0.835 -0.307,-1.367c0,-0.859 0.259,-1.497 0.775,-1.911c0.517,-0.415 1.19,-0.622 2.019,-0.622c0.512,0 0.968,0.046 1.367,0.138c0.399,0.092 0.721,0.21 0.967,0.353l-0.369,1.014c-0.184,-0.113 -0.447,-0.215 -0.79,-0.307c-0.343,-0.093 -0.74,-0.139 -1.19,-0.139c-0.553,0 -0.962,0.136 -1.228,0.407c-0.266,0.271 -0.399,0.612 -0.399,1.021c0,0.358 0.102,0.676 0.307,0.952c0.204,0.276 0.46,0.537 0.767,0.783c0.307,0.246 0.637,0.494 0.99,0.745c0.354,0.25 0.684,0.529 0.991,0.836c0.307,0.307 0.563,0.655 0.767,1.044c0.205,0.389 0.307,0.85 0.307,1.382c0,0.901 -0.266,1.607 -0.798,2.119c-0.532,0.512 -1.284,0.767 -2.257,0.767c-0.614,0 -1.118,-0.056 -1.512,-0.168c-0.394,-0.113 -0.709,-0.241 -0.944,-0.384l0.399,-1.06Z" style="fill-rule:nonzero;"/><path d="M69.401,70.456l-0.568,0l0,3.454l-1.105,0l0,-10.747l1.105,0l0,6.541l0.507,-0.215l1.796,-3.255l1.275,0l-1.812,3.101l-0.537,0.491l0.629,0.599l1.981,3.485l-1.336,0l-1.935,-3.454Z" style="fill-rule:nonzero;"/><path d="M73.869,66.234l1.105,0l0,7.676l-1.105,0l0,-7.676Zm-0.199,-2.334c0,-0.245 0.069,-0.445 0.207,-0.599c0.138,-0.153 0.32,-0.23 0.545,-0.23c0.225,0 0.412,0.074 0.56,0.223c0.149,0.148 0.223,0.35 0.223,0.606c0,0.246 -0.074,0.438 -0.223,0.576c-0.148,0.138 -0.335,0.207 -0.56,0.207c-0.225,0 -0.407,-0.071 -0.545,-0.215c-0.138,-0.143 -0.207,-0.332 -0.207,-0.568Z" style="fill-rule:nonzero;"/><path d="M78.199,72.083c0,0.359 0.048,0.614 0.145,0.768c0.098,0.153 0.233,0.23 0.407,0.23c0.215,0 0.466,-0.056 0.753,-0.169l0.107,0.891c-0.133,0.082 -0.32,0.148 -0.56,0.199c-0.241,0.052 -0.458,0.077 -0.653,0.077c-0.389,0 -0.703,-0.12 -0.944,-0.361c-0.241,-0.24 -0.361,-0.662 -0.361,-1.266l0,-9.289l1.106,0l0,8.92Z" style="fill-rule:nonzero;"/><path d="M81.776,72.083c0,0.359 0.048,0.614 0.146,0.768c0.097,0.153 0.232,0.23 0.406,0.23c0.215,0 0.466,-0.056 0.753,-0.169l0.107,0.891c-0.133,0.082 -0.32,0.148 -0.56,0.199c-0.241,0.052 -0.458,0.077 -0.653,0.077c-0.389,0 -0.703,-0.12 -0.944,-0.361c-0.24,-0.24 -0.361,-0.662 -0.361,-1.266l0,-9.289l1.106,0l0,8.92Z" style="fill-rule:nonzero;"/><path d="M84.048,72.651c0.205,0.123 0.448,0.228 0.729,0.315c0.282,0.087 0.571,0.131 0.868,0.131c0.337,0 0.624,-0.085 0.859,-0.254c0.236,-0.169 0.354,-0.442 0.354,-0.821c0,-0.317 -0.072,-0.578 -0.215,-0.783c-0.144,-0.205 -0.325,-0.389 -0.545,-0.553c-0.22,-0.164 -0.458,-0.315 -0.714,-0.453c-0.256,-0.138 -0.494,-0.304 -0.714,-0.499c-0.22,-0.194 -0.402,-0.424 -0.545,-0.691c-0.144,-0.266 -0.215,-0.603 -0.215,-1.013c0,-0.655 0.176,-1.149 0.53,-1.481c0.353,-0.333 0.852,-0.499 1.496,-0.499c0.42,0 0.783,0.038 1.09,0.115c0.308,0.077 0.574,0.181 0.799,0.314l-0.292,0.922c-0.194,-0.103 -0.42,-0.187 -0.675,-0.254c-0.256,-0.066 -0.517,-0.099 -0.783,-0.099c-0.369,0 -0.638,0.076 -0.806,0.23c-0.169,0.153 -0.254,0.394 -0.254,0.721c0,0.256 0.072,0.474 0.215,0.653c0.143,0.179 0.325,0.343 0.545,0.491c0.22,0.149 0.458,0.3 0.714,0.453c0.256,0.154 0.494,0.335 0.714,0.545c0.22,0.21 0.402,0.461 0.545,0.752c0.143,0.292 0.215,0.658 0.215,1.098c0,0.287 -0.046,0.558 -0.138,0.814c-0.092,0.256 -0.233,0.478 -0.422,0.668c-0.19,0.189 -0.425,0.34 -0.707,0.453c-0.281,0.112 -0.611,0.168 -0.99,0.168c-0.45,0 -0.839,-0.043 -1.167,-0.13c-0.327,-0.087 -0.604,-0.202 -0.829,-0.345l0.338,-0.968Z" style="fill-rule:nonzero;"/></svg>