<?xml version="1.0" encoding="UTF-8" standalone="no"?><!DOCTYPE svg PUBLIC "-//W3C//DTD SVG 1.1//EN" "http://www.w3.org/Graphics/SVG/1.1/DTD/svg11.dtd"><svg width="100%" height="100%" viewBox="0 0 200 200" version="1.1" xmlns="http://www.w3.org/2000/svg" xmlns:xlink="http://www.w3.org/1999/xlink" xml:space="preserve" xmlns:serif="http://www.serif.com/" style="fill-rule:evenodd;clip-rule:evenodd;stroke-linecap:round;stroke-linejoin:round;stroke-miterlimit:1.5;"><ellipse cx="99.968" cy="100.785" rx="84.116" ry="84.17" style="fill:none;stroke:#aaa;stroke-width:13px;"/><path d="M57.585,54.137c-0.408,-0.41 -1.072,-0.412 -1.482,-0.005l-1.487,1.476c-0.41,0.408 -0.412,1.071 -0.005,1.482l88.329,88.958c0.407,0.41 1.071,0.412 1.481,0.005l1.487,-1.476c0.41,-0.408 0.413,-1.072 0.005,-1.482l-88.328,-88.958Z" style="fill:none;stroke:#aaa;stroke-width:10px;"/><path d="M142.722,53.772c0.407,-0.41 1.071,-0.413 1.481,-0.005l1.487,1.476c0.41,0.407 0.413,1.071 0.005,1.482l-88.328,88.958c-0.408,0.41 -1.071,0.412 -1.482,0.005l-1.486,-1.476c-0.411,-0.408 -0.413,-1.072 -0.006,-1.482l88.329,-88.958Z" style="fill:none;stroke:#aaa;stroke-width:10px;"/></svg>