<?xml version="1.0" encoding="UTF-8" standalone="no"?><!DOCTYPE svg PUBLIC "-//W3C//DTD SVG 1.1//EN" "http://www.w3.org/Graphics/SVG/1.1/DTD/svg11.dtd"><svg width="100%" height="100%" viewBox="0 0 100 100" version="1.1" xmlns="http://www.w3.org/2000/svg" xmlns:xlink="http://www.w3.org/1999/xlink" xml:space="preserve" xmlns:serif="http://www.serif.com/" style="fill-rule:evenodd;clip-rule:evenodd;stroke-linejoin:round;stroke-miterlimit:1.41421;"><path d="M94.9,22.304c0,-5.613 -4.556,-10.169 -10.169,-10.169l-68.777,0c-5.612,0 -10.168,4.556 -10.168,10.169l0,56.175c0,5.612 4.556,10.168 10.168,10.168l68.777,0c5.613,0 10.169,-4.556 10.169,-10.168l0,-56.175Z" style="fill:#c0b3b3;"/><rect x="9.774" y="20.85" width="80.986" height="63.832" style="fill:#e1d8d8;"/><rect x="18.976" y="15.35" width="71.702" height="2.774" style="fill:#e1d8d8;"/><ellipse cx="12.118" cy="17.019" rx="1.386" ry="1.423" style="fill:#e1d8d8;"/><path d="M65.449,42.42c-0.407,-0.206 -0.88,-0.243 -1.315,-0.101c-0.434,0.142 -0.794,0.451 -1.001,0.858c-0.031,0.062 -0.063,0.124 -0.094,0.186c-0.246,0.484 -0.289,1.046 -0.12,1.563c0.168,0.516 0.535,0.944 1.02,1.19c4.008,2.034 13.435,6.817 16.144,8.192c0.409,0.208 0.909,0.044 1.116,-0.365c0.067,-0.132 0.141,-0.277 0.217,-0.428c0.321,-0.631 0.377,-1.364 0.157,-2.036c-0.22,-0.673 -0.698,-1.231 -1.329,-1.551c-3.897,-1.978 -11.533,-5.852 -14.795,-7.508Z" style="fill:#4e4848;"/><path d="M64.942,61.377c-0.461,0.189 -0.978,0.188 -1.437,-0.003c-0.46,-0.192 -0.825,-0.558 -1.014,-1.019c-0.001,0 -0.001,-0.001 -0.001,-0.001c-0.212,-0.515 -0.211,-1.093 0.004,-1.607c0.214,-0.514 0.623,-0.922 1.138,-1.134c4.087,-1.683 13.45,-5.537 16.489,-6.789c0.537,-0.22 1.151,0.035 1.372,0.572c0,0.001 0.001,0.002 0.001,0.002c0.295,0.718 0.294,1.523 -0.005,2.24c-0.298,0.716 -0.869,1.284 -1.587,1.58c-4.049,1.667 -11.57,4.763 -14.96,6.159Z" style="fill:#4e4848;"/><path d="M35.126,42.223c0.93,-0.471 2.066,-0.1 2.538,0.83c0,0.001 0.001,0.002 0.001,0.003c0.251,0.493 0.295,1.067 0.123,1.593c-0.172,0.526 -0.546,0.963 -1.04,1.213c-3.73,1.893 -12.046,6.113 -15.403,7.816c-0.384,0.195 -0.829,0.229 -1.238,0.095c-0.409,-0.133 -0.748,-0.424 -0.942,-0.807c-0.001,-0.001 -0.001,-0.001 -0.001,-0.002c-0.283,-0.557 -0.332,-1.203 -0.138,-1.797c0.194,-0.594 0.616,-1.087 1.173,-1.37c3.746,-1.9 11.505,-5.837 14.927,-7.574Z" style="fill:#4e4848;"/><path d="M35.504,60.992c0.534,0.219 1.133,0.218 1.666,-0.004c0.533,-0.222 0.955,-0.646 1.175,-1.18c0,0 0,-0.001 0,-0.001c0.182,-0.442 0.181,-0.938 -0.003,-1.379c-0.183,-0.441 -0.535,-0.792 -0.977,-0.973c-3.819,-1.573 -13.132,-5.407 -16.497,-6.792c-0.329,-0.136 -0.697,-0.135 -1.026,0.002c-0.328,0.137 -0.588,0.398 -0.723,0.727c0,0 0,0 -0.001,0.001c-0.266,0.647 -0.264,1.373 0.005,2.019c0.269,0.646 0.784,1.158 1.43,1.424c3.875,1.596 11.363,4.679 14.951,6.156Z" style="fill:#4e4848;"/><path d="M60.117,32.995c0.526,-1.387 -0.172,-2.94 -1.559,-3.466c-1.387,-0.526 -2.94,0.173 -3.466,1.56l-14.924,39.341c-0.526,1.387 0.173,2.94 1.56,3.466c1.386,0.526 2.94,-0.173 3.466,-1.559l14.923,-39.342Z" style="fill:#4e4848;"/></svg>