<?xml version="1.0" encoding="UTF-8" standalone="no"?><!DOCTYPE svg PUBLIC "-//W3C//DTD SVG 1.1//EN" "http://www.w3.org/Graphics/SVG/1.1/DTD/svg11.dtd"><svg width="100%" height="100%" viewBox="0 0 500 200" version="1.1" xmlns="http://www.w3.org/2000/svg" xmlns:xlink="http://www.w3.org/1999/xlink" xml:space="preserve" xmlns:serif="http://www.serif.com/" style="fill-rule:evenodd;clip-rule:evenodd;stroke-linejoin:round;stroke-miterlimit:1.41421;"><path d="M459.423,86.12c0,-9.697 -7.873,-17.57 -17.57,-17.57l-233.023,0c-9.697,0 -17.57,7.873 -17.57,17.57l0,35.14c0,9.697 7.873,17.57 17.57,17.57l233.023,0c9.697,0 17.57,-7.873 17.57,-17.57l0,-35.14Z" style="fill:#5b6773;"/><path d="M208.094,71.467c0,-16.254 -13.196,-29.45 -29.45,-29.45l-63.23,0c-16.253,0 -29.449,13.196 -29.449,29.45l0,58.899c0,16.254 13.196,29.45 29.449,29.45l63.23,0c16.254,0 29.45,-13.196 29.45,-29.45l0,-58.899Z" style="fill:#5b6773;"/><path d="M455.845,82.323c0,-9.697 -7.873,-17.57 -17.57,-17.57l-233.023,0c-9.697,0 -17.57,7.873 -17.57,17.57l0,35.141c0,9.697 7.873,17.57 17.57,17.57l233.023,0c9.697,0 17.57,-7.873 17.57,-17.57l0,-35.141Z" style="fill:#6b7b8a;"/><path d="M205.805,68.373c0,-16.254 -13.196,-29.45 -29.45,-29.45l-63.23,0c-16.254,0 -29.45,13.196 -29.45,29.45l0,58.9c0,16.253 13.196,29.449 29.45,29.449l63.23,0c16.254,0 29.45,-13.196 29.45,-29.449l0,-58.9Z" style="fill:#6b7b8a;"/><path d="M165.499,103.98l-3.448,1.437l-2.713,2.273l-2.502,4.123l-4.046,4.442l-2.835,4.047l-2.774,3.031l-3.456,2.107l-3.365,1.804l-2.562,2.486l-2.137,2.425l-2.243,3.062l-1.668,2.88l-1.44,3.062l-1.91,3.789l-1.174,2.418l-1.585,2.297l-2.41,0l-2.076,-2.35l-2.031,-2.755l-1.001,-3.065l-0.045,-2.986l0.167,-3.669l1.167,-3.789l1.409,-2.456l1.819,-3.259l2.365,-3.471l1.834,-3.001l-2.319,-0.515l-4.926,0.439l-4.518,0.121l-4.061,-0.409l-3.305,-1.41l-3.835,-2.365l-1.149,-2.664l-0.291,-2.186l0.515,-4.138l0.273,-3.107l-2.425,-2.35l-0.699,-2.4l-0.107,-1.979l0.391,-1.573l1.037,-2.006l1.803,-2.47l-0.94,-2.198l-0.515,-2.82l0.379,-3.425l1.531,-2.88l1.379,-2.562l0.151,-2.629l0.263,-1.876l0.674,-1.538l0.889,-1.339l1.824,-2.026l2.577,-2.062l3.835,-0.985l8.943,-1.046l14.218,0.561l14.4,1.592l8.595,1.773l1.986,2.623l1.213,2.667l2.288,5.821l1.122,5.366l0.076,5.123l-0.015,5.123l-0.698,4.579l-0.485,3.925l-1.414,2.363Z" style="fill:#6b7b8a;"/><path d="M167.116,103.567l-3.449,1.436l-2.713,2.274l-2.501,4.123l-4.047,4.442l-2.835,4.046l-2.774,3.032l-3.456,2.107l-3.365,1.804l-2.562,2.486l-2.137,2.425l-2.243,3.062l-1.668,2.88l-1.44,3.062l-1.91,3.789l-1.174,2.418l-1.584,2.297l-2.41,0l-2.077,-2.35l-2.031,-2.755l-1.001,-3.065l-0.045,-2.987l0.167,-3.668l1.167,-3.789l1.41,-2.456l1.818,-3.259l2.365,-3.471l1.834,-3.002l-2.319,-0.515l-4.926,0.44l-4.517,0.121l-4.062,-0.409l-3.305,-1.41l-3.835,-2.365l-1.149,-2.664l-0.291,-2.186l0.515,-4.138l0.273,-3.107l-2.425,-2.35l-0.699,-2.4l-0.107,-1.979l0.391,-1.574l1.037,-2.005l1.803,-2.47l-0.94,-2.199l-0.515,-2.819l0.379,-3.426l1.531,-2.88l1.379,-2.561l0.151,-2.629l0.263,-1.876l0.674,-1.538l0.889,-1.34l1.824,-2.025l2.577,-2.062l3.835,-0.985l8.943,-1.046l14.219,0.561l14.4,1.591l8.594,1.774l1.986,2.623l1.213,2.667l2.288,5.821l1.122,5.365l0.076,5.124l-0.015,5.123l-0.698,4.578l-0.485,3.926l-1.413,2.363Z" style="fill:#d6403b;"/><path d="M174.29,109.002l2.774,0.516l3.137,0.424l3.32,0.212l2.319,-0.803l1.41,-2.062l1.172,-3.429l0.192,-3.664l0.167,-8.14l-0.167,-6.563l-0.485,-4.639l-0.454,-5.275l-1.061,-4.233l-1.092,-3.27l-1.152,-2.168l-2.092,-0.409l-4.183,-0.394l-5.548,0.288l-3.309,0.933l-0.17,2.277l0.887,2.853l1.091,3.017l1,5.517l0.485,6.26l0.182,5.169l-0.015,4.957l0.152,4.547l-0.273,3.835l0.25,2.601l1.463,1.643Z" style="fill:#6b7b8a;"/><path d="M175.679,108.511l2.773,0.515l3.138,0.425l3.32,0.212l2.319,-0.804l1.41,-2.061l1.171,-3.43l0.192,-3.664l0.167,-8.14l-0.167,-6.563l-0.485,-4.638l-0.454,-5.275l-1.06,-4.233l-1.092,-3.271l-1.152,-2.167l-2.092,-0.409l-4.184,-0.394l-5.547,0.288l-3.31,0.933l-0.17,2.277l0.887,2.853l1.092,3.016l1,5.518l0.485,6.26l0.182,5.169l-0.015,4.956l0.152,4.548l-0.273,3.835l0.25,2.601l1.463,1.643Z" style="fill:#d6403b;"/><text x="222.005px" y="117.139px" style="font-family:'PTSans-Narrow', 'PT Sans Narrow', sans-serif;font-stretch:condensed;font-size:44.061px;">Not So Much.<tspan x="422.704px 429.71px " y="117.139px 117.139px ">..</tspan></text></svg>