<?xml version="1.0" encoding="UTF-8" standalone="no"?><!DOCTYPE svg PUBLIC "-//W3C//DTD SVG 1.1//EN" "http://www.w3.org/Graphics/SVG/1.1/DTD/svg11.dtd"><svg width="100%" height="100%" viewBox="0 0 200 100" version="1.1" xmlns="http://www.w3.org/2000/svg" xmlns:xlink="http://www.w3.org/1999/xlink" xml:space="preserve" xmlns:serif="http://www.serif.com/" style="fill-rule:evenodd;clip-rule:evenodd;stroke-linecap:round;stroke-linejoin:round;stroke-miterlimit:1.5;"><path d="M149.918,26.906c0,-5.547 -4.503,-10.051 -10.05,-10.051l-82.347,0c-5.547,0 -10.05,4.504 -10.05,10.051l0,45.234c0,5.547 4.503,10.051 10.05,10.051l82.347,0c5.547,0 10.05,-4.504 10.05,-10.051l0,-45.234Z" style="fill:#6b7b8a;"/><path d="M147.683,30.752c0,-4.895 -3.974,-8.87 -8.869,-8.87l-80.761,0c-4.895,0 -8.87,3.975 -8.87,8.87l0,41.374c0,4.895 3.975,8.869 8.87,8.869l80.761,0c4.895,0 8.869,-3.974 8.869,-8.869l0,-41.374Z" style="fill:#e2e6eb;"/><rect x="60.637" y="18.582" width="79.387" height="2.162" style="fill:#dae1e8;"/><ellipse cx="71.465" cy="4.623" rx="1.519" ry="1.599" style="fill:#dae1e8;"/><path d="M139.902,35.414c0,-3.187 -2.587,-5.775 -5.774,-5.775l-71.988,0c-3.187,0 -5.774,2.588 -5.774,5.775l0,11.548c0,3.187 2.587,5.775 5.774,5.775l71.988,0c3.187,0 5.774,-2.588 5.774,-5.775l0,-11.548Z" style="fill:#bac8ca;"/><text x="68.589px" y="46.183px" style="font-family:'PTSans-Narrow', 'PT Sans Narrow', sans-serif;font-stretch:condensed;font-size:auto">Education</text><rect x="60.085" y="58.034" width="20.171" height="20.132" style="fill:#c6c9cc;"/><rect x="85.079" y="66.507" width="17.06" height="10.875" style="fill:#c6c9cc;"/><rect x="109.073" y="58.818" width="15.15" height="18.503" style="fill:#c6c9cc;"/><rect x="128.689" y="69.877" width="15.668" height="7.062" style="fill:#c6c9cc;"/><rect x="128.531" y="66.778" width="15.668" height="2.059" style="fill:#c6c9cc;"/><rect x="128.531" y="63.99" width="15.668" height="2.059" style="fill:#c6c9cc;"/><rect x="128.598" y="61.03" width="15.668" height="2.059" style="fill:#c6c9cc;"/><rect x="84.866" y="62.938" width="17.401" height="1.971" style="fill:#c6c9cc;"/><rect x="84.95" y="60.296" width="17.401" height="1.971" style="fill:#c6c9cc;"/><path d="M68.172,18.222c0.177,0.133 0.283,0.34 0.287,0.562c0.004,0.222 -0.095,0.433 -0.268,0.572c-3.443,2.759 -18.187,14.578 -22.167,17.768c-0.238,0.191 -0.551,0.261 -0.848,0.19c-0.297,-0.071 -0.544,-0.276 -0.669,-0.554c-1.262,-2.796 -4.365,-9.675 -4.365,-9.675l19.258,-15.437c0,0 6.535,4.897 8.772,6.574Z" style="fill:#033e75;"/><path d="M71.566,2.568c0.126,-0.03 0.257,0.031 0.313,0.148c0.056,0.117 0.023,0.258 -0.08,0.337c-5.997,4.62 -36.398,28.038 -42.208,32.514c-0.096,0.074 -0.231,0.07 -0.323,-0.008c-0.092,-0.079 -0.117,-0.211 -0.059,-0.318c1.621,-2.988 6.125,-11.293 6.647,-12.255c0.032,-0.06 0.077,-0.113 0.131,-0.154c1.415,-1.09 20.616,-15.881 21.944,-16.904c0.047,-0.037 0.102,-0.063 0.161,-0.077c0.994,-0.243 10.09,-2.458 13.474,-3.283Z" style="fill:#065fb3;"/><path d="M27.247,57.26c0,2.708 0,5.416 0,8.125c0,0.663 -0.288,2.454 0.123,3.038c0.808,1.148 4.622,1.954 6.039,1.954" style="fill:none;"/><path d="M48.003,16.97c-0.902,0 -2.238,-0.263 -3.092,0.057c-0.615,0.23 -0.965,0.916 -1.352,1.412c-1.173,1.501 -1.924,3.504 -2.335,5.357c-0.335,1.51 -0.889,2.92 -1.12,4.44c-0.142,0.928 -0.022,2.024 0.141,2.927c0.043,0.236 0.022,0.88 0.206,1.027c0.044,0.035 -0.004,0.435 0,0.48c0.06,0.591 0.18,1.14 0.18,1.741c0,1.756 0.372,3.333 0.533,5.042c0.069,0.726 -0.052,1.415 -0.259,2.103c-0.109,0.361 -0.41,0.847 -0.41,1.222" style="fill:none;stroke:#f6ec64;stroke-width:0.85px;"/><ellipse cx="47.954" cy="16.797" rx="0.695" ry="0.675" style="fill:#033e75;"/><path d="M39.837,29.786c0,1.045 -0.743,1.973 -0.596,3.087c0.291,2.206 0.78,4.222 0.78,6.509c0,0.63 -0.067,2.212 -0.573,2.711" style="fill:#f6ec64;stroke:#f6ec64;stroke-width:0.85px;"/><path d="M40.219,30.84c0,0.999 -0.24,2.408 0,3.373c0.3,1.208 0.284,2.486 0.49,3.721c0.155,0.934 0.383,2.017 0.649,2.915c0.161,0.547 -0.061,1.293 -0.061,1.831" style="fill:#f6ec64;stroke:#f6ec64;stroke-width:0.85px;"/><path d="M40.085,30.91c0,1.176 0.313,2.184 0.788,3.227c0.269,0.593 0.809,1.106 0.994,1.731c0.241,0.81 -0.045,1.703 0.157,2.513c0.103,0.416 -0.036,0.893 0.067,1.307c0.194,0.78 0.206,1.921 0.206,2.701" style="fill:#f6ec64;stroke:#f6ec64;stroke-width:0.85px;"/><path d="M41.567,36.015c0,0.641 0.139,1.51 -0.019,2.136c-0.101,0.402 -0.247,0.945 -0.247,1.356" style="fill:#f6ec64;stroke:#f6ec64;stroke-width:0.85px;"/></svg>