<?xml version="1.0" encoding="UTF-8" standalone="no"?><!DOCTYPE svg PUBLIC "-//W3C//DTD SVG 1.1//EN" "http://www.w3.org/Graphics/SVG/1.1/DTD/svg11.dtd"><svg width="100%" height="100%" viewBox="0 0 200 100" version="1.1" xmlns="http://www.w3.org/2000/svg" xmlns:xlink="http://www.w3.org/1999/xlink" xml:space="preserve" xmlns:serif="http://www.serif.com/" style="fill-rule:evenodd;clip-rule:evenodd;stroke-linecap:round;stroke-linejoin:round;stroke-miterlimit:1.5;"><path d="M149.918,26.906c0,-5.547 -4.503,-10.051 -10.05,-10.051l-82.347,0c-5.547,0 -10.05,4.504 -10.05,10.051l0,45.234c0,5.547 4.503,10.051 10.05,10.051l82.347,0c5.547,0 10.05,-4.504 10.05,-10.051l0,-45.234Z" style="fill:#6b7b8a;"/><path d="M147.683,30.752c0,-4.895 -3.974,-8.87 -8.869,-8.87l-80.761,0c-4.895,0 -8.87,3.975 -8.87,8.87l0,41.374c0,4.895 3.975,8.869 8.87,8.869l80.761,0c4.895,0 8.869,-3.974 8.869,-8.869l0,-41.374Z" style="fill:#e2e6eb;"/><rect x="60.637" y="18.582" width="79.387" height="2.162" style="fill:#dae1e8;"/><ellipse cx="71.465" cy="4.623" rx="1.519" ry="1.599" style="fill:#dae1e8;"/><path d="M139.902,35.414c0,-3.187 -2.587,-5.775 -5.774,-5.775l-71.988,0c-3.187,0 -5.774,2.588 -5.774,5.775l0,11.548c0,3.187 2.587,5.775 5.774,5.775l71.988,0c3.187,0 5.774,-2.588 5.774,-5.775l0,-11.548Z" style="fill:#bac8ca;"/><path d="M69.671,34.352l5.256,0l0,1.166l-3.989,0l0,4.006l3.668,0l0,1.166l-3.668,0l0,4.327l4.074,0l0,1.166l-5.341,0l0,-11.831Z" style="fill-rule:nonzero;"/><path d="M82.161,43.276c0,0.575 0.006,1.096 0.017,1.564c0.012,0.467 0.051,0.927 0.119,1.377l-0.829,0l-0.27,-1.014l-0.068,0c-0.157,0.338 -0.405,0.62 -0.743,0.845c-0.338,0.226 -0.744,0.338 -1.217,0.338c-0.913,0 -1.592,-0.355 -2.037,-1.065c-0.445,-0.709 -0.668,-1.825 -0.668,-3.346c0,-1.443 0.274,-2.536 0.82,-3.279c0.547,-0.744 1.299,-1.116 2.256,-1.116c0.327,0 0.586,0.02 0.778,0.059c0.192,0.04 0.4,0.105 0.625,0.195l0,-3.482l1.217,0l0,8.924Zm-1.217,-4.208c-0.157,-0.136 -0.335,-0.234 -0.532,-0.296c-0.197,-0.062 -0.459,-0.093 -0.786,-0.093c-0.597,0 -1.062,0.27 -1.394,0.811c-0.333,0.541 -0.499,1.375 -0.499,2.502c0,0.495 0.031,0.943 0.093,1.343c0.062,0.4 0.158,0.747 0.287,1.04c0.13,0.293 0.299,0.518 0.507,0.676c0.209,0.158 0.465,0.237 0.769,0.237c0.812,0 1.33,-0.479 1.555,-1.437l0,-4.783Z" style="fill-rule:nonzero;"/><path d="M85.254,37.732l0,5.172c0,0.857 0.088,1.468 0.262,1.834c0.175,0.367 0.493,0.55 0.955,0.55c0.237,0 0.448,-0.048 0.634,-0.144c0.186,-0.096 0.352,-0.223 0.499,-0.38c0.146,-0.158 0.276,-0.338 0.389,-0.541c0.112,-0.203 0.202,-0.412 0.27,-0.626l0,-5.865l1.217,0l0,6.051c0,0.406 0.014,0.826 0.042,1.26c0.028,0.433 0.071,0.814 0.127,1.14l-0.862,0l-0.304,-1.183l-0.051,0c-0.191,0.372 -0.468,0.696 -0.828,0.972c-0.361,0.276 -0.811,0.414 -1.352,0.414c-0.361,0 -0.676,-0.045 -0.947,-0.135c-0.27,-0.09 -0.501,-0.253 -0.693,-0.49c-0.191,-0.237 -0.335,-0.561 -0.431,-0.972c-0.096,-0.411 -0.144,-0.938 -0.144,-1.58l0,-5.477l1.217,0Z" style="fill-rule:nonzero;"/><path d="M96.156,45.761c-0.281,0.214 -0.602,0.372 -0.963,0.473c-0.361,0.102 -0.738,0.152 -1.132,0.152c-0.541,0 -0.998,-0.104 -1.37,-0.312c-0.371,-0.209 -0.673,-0.507 -0.904,-0.896c-0.231,-0.389 -0.4,-0.857 -0.507,-1.403c-0.107,-0.547 -0.16,-1.152 -0.16,-1.817c0,-1.442 0.256,-2.541 0.769,-3.296c0.512,-0.755 1.248,-1.133 2.205,-1.133c0.44,0 0.817,0.04 1.133,0.119c0.315,0.079 0.586,0.18 0.811,0.304l-0.338,1.065c-0.451,-0.259 -0.941,-0.389 -1.47,-0.389c-0.609,0 -1.068,0.268 -1.378,0.803c-0.31,0.535 -0.465,1.378 -0.465,2.527c0,0.462 0.034,0.896 0.102,1.301c0.067,0.406 0.18,0.758 0.338,1.057c0.157,0.298 0.36,0.535 0.608,0.71c0.248,0.174 0.558,0.262 0.93,0.262c0.293,0 0.566,-0.051 0.82,-0.152c0.253,-0.102 0.459,-0.22 0.616,-0.355l0.355,0.98Z" style="fill-rule:nonzero;"/><path d="M97.424,38.239c0.327,-0.202 0.724,-0.36 1.192,-0.473c0.467,-0.113 0.96,-0.169 1.479,-0.169c0.473,0 0.853,0.071 1.141,0.211c0.287,0.141 0.512,0.333 0.676,0.575c0.163,0.242 0.27,0.518 0.321,0.828c0.051,0.31 0.076,0.634 0.076,0.972c0,0.676 -0.014,1.335 -0.042,1.978c-0.029,0.642 -0.043,1.25 -0.043,1.825c0,0.428 0.014,0.826 0.043,1.192c0.028,0.366 0.081,0.712 0.16,1.039l-0.929,0l-0.288,-0.997l-0.067,0c-0.169,0.293 -0.417,0.547 -0.744,0.761c-0.327,0.214 -0.766,0.321 -1.318,0.321c-0.609,0 -1.108,-0.212 -1.496,-0.634c-0.389,-0.423 -0.583,-1.006 -0.583,-1.749c0,-0.485 0.081,-0.891 0.245,-1.217c0.163,-0.327 0.394,-0.592 0.693,-0.795c0.298,-0.203 0.653,-0.346 1.064,-0.431c0.412,-0.084 0.871,-0.127 1.378,-0.127c0.113,0 0.225,0 0.338,0c0.113,0 0.231,0.006 0.355,0.017c0.034,-0.349 0.051,-0.659 0.051,-0.929c0,-0.643 -0.096,-1.093 -0.288,-1.353c-0.191,-0.259 -0.541,-0.388 -1.048,-0.388c-0.315,0 -0.659,0.048 -1.031,0.143c-0.371,0.096 -0.681,0.217 -0.929,0.364l-0.406,-0.964Zm3.668,4.091c-0.113,-0.012 -0.225,-0.02 -0.338,-0.026c-0.113,-0.005 -0.226,-0.008 -0.338,-0.008c-0.271,0 -0.535,0.022 -0.795,0.068c-0.259,0.045 -0.49,0.123 -0.693,0.236c-0.202,0.113 -0.363,0.265 -0.481,0.457c-0.119,0.191 -0.178,0.433 -0.178,0.726c0,0.451 0.11,0.8 0.33,1.048c0.22,0.248 0.504,0.372 0.853,0.372c0.474,0 0.84,-0.113 1.099,-0.338c0.259,-0.225 0.439,-0.473 0.541,-0.744l0,-1.791Z" style="fill-rule:nonzero;"/><path d="M103.424,37.732l1.031,0l0,-1.673l1.217,-0.389l0,2.062l1.826,0l0,1.099l-1.826,0l0,5.037c0,0.496 0.06,0.853 0.178,1.073c0.118,0.22 0.313,0.33 0.583,0.33c0.225,0 0.42,-0.026 0.583,-0.076c0.164,-0.051 0.341,-0.116 0.533,-0.195l0.236,0.964c-0.248,0.124 -0.521,0.222 -0.82,0.296c-0.298,0.073 -0.611,0.109 -0.938,0.109c-0.563,0 -0.966,-0.183 -1.208,-0.549c-0.242,-0.366 -0.364,-0.961 -0.364,-1.783l0,-5.206l-1.031,0l0,-1.099Z" style="fill-rule:nonzero;"/><path d="M109.12,37.732l1.217,0l0,8.451l-1.217,0l0,-8.451Zm-0.219,-2.569c0,-0.27 0.076,-0.49 0.228,-0.659c0.152,-0.169 0.352,-0.254 0.6,-0.254c0.248,0 0.454,0.082 0.617,0.246c0.163,0.163 0.245,0.385 0.245,0.667c0,0.271 -0.082,0.482 -0.245,0.634c-0.163,0.152 -0.369,0.228 -0.617,0.228c-0.248,0 -0.448,-0.079 -0.6,-0.236c-0.152,-0.158 -0.228,-0.367 -0.228,-0.626Z" style="fill-rule:nonzero;"/><path d="M112.214,41.958c0,-1.521 0.262,-2.64 0.786,-3.355c0.524,-0.716 1.27,-1.074 2.239,-1.074c1.037,0 1.8,0.367 2.29,1.099c0.491,0.733 0.736,1.842 0.736,3.33c0,1.532 -0.265,2.654 -0.795,3.363c-0.529,0.71 -1.273,1.065 -2.231,1.065c-1.037,0 -1.8,-0.366 -2.29,-1.098c-0.49,-0.733 -0.735,-1.843 -0.735,-3.33Zm1.267,0c0,0.496 0.031,0.946 0.093,1.352c0.062,0.406 0.164,0.755 0.304,1.048c0.141,0.293 0.324,0.521 0.55,0.685c0.225,0.163 0.496,0.245 0.811,0.245c0.586,0 1.026,-0.262 1.318,-0.786c0.293,-0.524 0.44,-1.372 0.44,-2.544c0,-0.485 -0.031,-0.933 -0.093,-1.344c-0.062,-0.411 -0.163,-0.763 -0.304,-1.056c-0.141,-0.293 -0.324,-0.521 -0.55,-0.685c-0.225,-0.163 -0.495,-0.245 -0.811,-0.245c-0.575,0 -1.011,0.265 -1.31,0.795c-0.298,0.529 -0.448,1.374 -0.448,2.535Z" style="fill-rule:nonzero;"/><path d="M124.214,46.183l0,-5.155c0,-0.845 -0.098,-1.456 -0.296,-1.834c-0.197,-0.377 -0.549,-0.566 -1.056,-0.566c-0.451,0 -0.823,0.135 -1.116,0.406c-0.292,0.27 -0.507,0.603 -0.642,0.997l0,6.152l-1.217,0l0,-8.451l0.879,0l0.22,0.896l0.051,0c0.214,-0.304 0.504,-0.563 0.87,-0.777c0.366,-0.214 0.803,-0.322 1.31,-0.322c0.361,0 0.679,0.051 0.955,0.153c0.276,0.101 0.507,0.273 0.693,0.515c0.186,0.242 0.327,0.566 0.423,0.972c0.095,0.406 0.143,0.918 0.143,1.538l0,5.476l-1.217,0Z" style="fill-rule:nonzero;"/><rect x="60.085" y="58.034" width="20.171" height="20.132" style="fill:#c6c9cc;"/><rect x="85.079" y="66.507" width="17.06" height="10.875" style="fill:#c6c9cc;"/><rect x="109.073" y="58.818" width="15.15" height="18.503" style="fill:#c6c9cc;"/><rect x="128.689" y="69.877" width="15.668" height="7.062" style="fill:#c6c9cc;"/><rect x="128.531" y="66.778" width="15.668" height="2.059" style="fill:#c6c9cc;"/><rect x="128.531" y="63.99" width="15.668" height="2.059" style="fill:#c6c9cc;"/><rect x="128.598" y="61.03" width="15.668" height="2.059" style="fill:#c6c9cc;"/><rect x="84.866" y="62.938" width="17.401" height="1.971" style="fill:#c6c9cc;"/><rect x="84.95" y="60.296" width="17.401" height="1.971" style="fill:#c6c9cc;"/><path d="M68.172,18.222c0.177,0.133 0.283,0.34 0.287,0.562c0.004,0.222 -0.095,0.433 -0.268,0.572c-3.443,2.759 -18.187,14.578 -22.167,17.768c-0.238,0.191 -0.551,0.261 -0.848,0.19c-0.297,-0.071 -0.544,-0.276 -0.669,-0.554c-1.262,-2.796 -4.365,-9.675 -4.365,-9.675l19.258,-15.437c0,0 6.535,4.897 8.772,6.574Z" style="fill:#033e75;"/><path d="M71.566,2.568c0.126,-0.03 0.257,0.031 0.313,0.148c0.056,0.117 0.023,0.258 -0.08,0.337c-5.997,4.62 -36.398,28.038 -42.208,32.514c-0.096,0.074 -0.231,0.07 -0.323,-0.008c-0.092,-0.079 -0.117,-0.211 -0.059,-0.318c1.621,-2.988 6.125,-11.293 6.647,-12.255c0.032,-0.06 0.077,-0.113 0.131,-0.154c1.415,-1.09 20.616,-15.881 21.944,-16.904c0.047,-0.037 0.102,-0.063 0.161,-0.077c0.994,-0.243 10.09,-2.458 13.474,-3.283Z" style="fill:#065fb3;"/><path d="M27.247,57.26c0,2.708 0,5.416 0,8.125c0,0.663 -0.288,2.454 0.123,3.038c0.808,1.148 4.622,1.954 6.039,1.954" style="fill:none;"/><path d="M48.003,16.97c-0.902,0 -2.238,-0.263 -3.092,0.057c-0.615,0.23 -0.965,0.916 -1.352,1.412c-1.173,1.501 -1.924,3.504 -2.335,5.357c-0.335,1.51 -0.889,2.92 -1.12,4.44c-0.142,0.928 -0.022,2.024 0.141,2.927c0.043,0.236 0.022,0.88 0.206,1.027c0.044,0.035 -0.004,0.435 0,0.48c0.06,0.591 0.18,1.14 0.18,1.741c0,1.756 0.372,3.333 0.533,5.042c0.069,0.726 -0.052,1.415 -0.259,2.103c-0.109,0.361 -0.41,0.847 -0.41,1.222" style="fill:none;stroke:#f6ec64;stroke-width:0.85px;"/><ellipse cx="47.954" cy="16.797" rx="0.695" ry="0.675" style="fill:#033e75;"/><path d="M39.837,29.786c0,1.045 -0.743,1.973 -0.596,3.087c0.291,2.206 0.78,4.222 0.78,6.509c0,0.63 -0.067,2.212 -0.573,2.711" style="fill:#f6ec64;stroke:#f6ec64;stroke-width:0.85px;"/><path d="M40.219,30.84c0,0.999 -0.24,2.408 0,3.373c0.3,1.208 0.284,2.486 0.49,3.721c0.155,0.934 0.383,2.017 0.649,2.915c0.161,0.547 -0.061,1.293 -0.061,1.831" style="fill:#f6ec64;stroke:#f6ec64;stroke-width:0.85px;"/><path d="M40.085,30.91c0,1.176 0.313,2.184 0.788,3.227c0.269,0.593 0.809,1.106 0.994,1.731c0.241,0.81 -0.045,1.703 0.157,2.513c0.103,0.416 -0.036,0.893 0.067,1.307c0.194,0.78 0.206,1.921 0.206,2.701" style="fill:#f6ec64;stroke:#f6ec64;stroke-width:0.85px;"/><path d="M41.567,36.015c0,0.641 0.139,1.51 -0.019,2.136c-0.101,0.402 -0.247,0.945 -0.247,1.356" style="fill:#f6ec64;stroke:#f6ec64;stroke-width:0.85px;"/></svg>