<?xml version="1.0" encoding="UTF-8" standalone="no"?><!DOCTYPE svg PUBLIC "-//W3C//DTD SVG 1.1//EN" "http://www.w3.org/Graphics/SVG/1.1/DTD/svg11.dtd"><svg width="100%" height="100%" viewBox="0 0 200 100" version="1.1" xmlns="http://www.w3.org/2000/svg" xmlns:xlink="http://www.w3.org/1999/xlink" xml:space="preserve" xmlns:serif="http://www.serif.com/" style="fill-rule:evenodd;clip-rule:evenodd;stroke-linejoin:round;stroke-miterlimit:1.41421;"><path d="M149.918,26.906c0,-5.547 -4.503,-10.051 -10.05,-10.051l-82.347,0c-5.547,0 -10.05,4.504 -10.05,10.051l0,45.234c0,5.547 4.503,10.051 10.05,10.051l82.347,0c5.547,0 10.05,-4.504 10.05,-10.051l0,-45.234Z" style="fill:#6b7b8a;"/><path d="M147.683,30.752c0,-4.895 -3.974,-8.87 -8.869,-8.87l-80.761,0c-4.895,0 -8.87,3.975 -8.87,8.87l0,41.374c0,4.895 3.975,8.869 8.87,8.869l80.761,0c4.895,0 8.869,-3.974 8.869,-8.869l0,-41.374Z" style="fill:#e2e6eb;"/><rect x="60.637" y="18.582" width="79.387" height="2.162" style="fill:#dae1e8;"/><ellipse cx="55.16" cy="20.1" rx="1.519" ry="1.599" style="fill:#dae1e8;"/><path d="M139.902,35.414c0,-3.187 -2.587,-5.775 -5.774,-5.775l-71.988,0c-3.187,0 -5.774,2.588 -5.774,5.775l0,11.548c0,3.187 2.587,5.775 5.774,5.775l71.988,0c3.187,0 5.774,-2.588 5.774,-5.775l0,-11.548Z" style="fill:#bac8ca;"/><text x="64.628px" y="45.158px" style="font-family:'PTSans-Narrow', 'PT Sans Narrow', sans-serif;font-stretch:condensed;font-size:auto;">Emplo<tspan x="96.833px " y="45.158px ">y</tspan>ment</text><rect x="60.085" y="58.034" width="20.171" height="20.132" style="fill:#c6c9cc;"/><rect x="85.079" y="66.507" width="17.06" height="10.875" style="fill:#c6c9cc;"/><rect x="109.073" y="58.818" width="15.15" height="18.503" style="fill:#c6c9cc;"/><rect x="128.689" y="69.877" width="15.668" height="7.062" style="fill:#c6c9cc;"/><rect x="128.531" y="66.778" width="15.668" height="2.059" style="fill:#c6c9cc;"/><rect x="128.531" y="63.99" width="15.668" height="2.059" style="fill:#c6c9cc;"/><rect x="128.598" y="61.03" width="15.668" height="2.059" style="fill:#c6c9cc;"/><rect x="84.866" y="62.938" width="17.401" height="1.971" style="fill:#c6c9cc;"/><rect x="84.95" y="60.296" width="17.401" height="1.971" style="fill:#c6c9cc;"/></svg>