<?xml version="1.0" encoding="UTF-8" standalone="no"?><!DOCTYPE svg PUBLIC "-//W3C//DTD SVG 1.1//EN" "http://www.w3.org/Graphics/SVG/1.1/DTD/svg11.dtd"><svg width="100%" height="100%" viewBox="0 0 200 100" version="1.1" xmlns="http://www.w3.org/2000/svg" xmlns:xlink="http://www.w3.org/1999/xlink" xml:space="preserve" xmlns:serif="http://www.serif.com/" style="fill-rule:evenodd;clip-rule:evenodd;stroke-linejoin:round;stroke-miterlimit:1.41421;"><path d="M149.918,26.906c0,-5.547 -4.503,-10.051 -10.05,-10.051l-82.347,0c-5.547,0 -10.05,4.504 -10.05,10.051l0,45.234c0,5.547 4.503,10.051 10.05,10.051l82.347,0c5.547,0 10.05,-4.504 10.05,-10.051l0,-45.234Z" style="fill:#6b7b8a;"/><path d="M147.683,30.752c0,-4.895 -3.974,-8.87 -8.869,-8.87l-80.761,0c-4.895,0 -8.87,3.975 -8.87,8.87l0,41.374c0,4.895 3.975,8.869 8.87,8.869l80.761,0c4.895,0 8.869,-3.974 8.869,-8.869l0,-41.374Z" style="fill:#e2e6eb;"/><rect x="60.637" y="18.582" width="79.387" height="2.162" style="fill:#dae1e8;"/><ellipse cx="55.16" cy="20.1" rx="1.519" ry="1.599" style="fill:#dae1e8;"/><path d="M139.902,35.414c0,-3.187 -2.587,-5.775 -5.774,-5.775l-71.988,0c-3.187,0 -5.774,2.588 -5.774,5.775l0,11.548c0,3.187 2.587,5.775 5.774,5.775l71.988,0c3.187,0 5.774,-2.588 5.774,-5.775l0,-11.548Z" style="fill:#bac8ca;"/><path d="M65.578,34.769l4.615,0l0,1.024l-3.502,0l0,3.517l3.22,0l0,1.024l-3.22,0l0,3.8l3.577,0l0,1.024l-4.69,0l0,-10.389Z" style="fill-rule:nonzero;"/><path d="M75.343,45.158l0,-4.408c0,-0.396 -0.012,-0.735 -0.037,-1.017c-0.025,-0.282 -0.076,-0.512 -0.156,-0.69c-0.079,-0.178 -0.188,-0.309 -0.326,-0.393c-0.139,-0.084 -0.322,-0.126 -0.549,-0.126c-0.337,0 -0.621,0.131 -0.854,0.393c-0.232,0.262 -0.393,0.561 -0.482,0.898l0,5.343l-1.069,0l0,-7.421l0.757,0l0.193,0.787l0.045,0c0.208,-0.287 0.455,-0.52 0.742,-0.698c0.287,-0.178 0.653,-0.267 1.098,-0.267c0.376,0 0.685,0.082 0.928,0.245c0.242,0.163 0.433,0.453 0.571,0.868c0.178,-0.346 0.433,-0.618 0.764,-0.816c0.332,-0.198 0.695,-0.297 1.091,-0.297c0.327,0 0.606,0.042 0.839,0.126c0.232,0.084 0.42,0.233 0.564,0.445c0.143,0.213 0.25,0.495 0.319,0.846c0.069,0.352 0.104,0.794 0.104,1.329l0,4.853l-1.069,0l0,-4.72c0,-0.643 -0.062,-1.123 -0.185,-1.439c-0.124,-0.317 -0.408,-0.475 -0.854,-0.475c-0.376,0 -0.675,0.116 -0.898,0.348c-0.222,0.233 -0.378,0.547 -0.467,0.943l0,5.343l-1.069,0Z" style="fill-rule:nonzero;"/><path d="M81.532,37.737l0.757,0l0.163,0.802l0.06,0c0.366,-0.653 0.94,-0.98 1.721,-0.98c0.782,0 1.368,0.292 1.759,0.876c0.391,0.583 0.586,1.538 0.586,2.864c0,0.623 -0.064,1.185 -0.193,1.684c-0.128,0.5 -0.311,0.926 -0.549,1.277c-0.237,0.351 -0.527,0.618 -0.868,0.801c-0.342,0.183 -0.72,0.275 -1.136,0.275c-0.286,0 -0.514,-0.018 -0.682,-0.052c-0.168,-0.035 -0.351,-0.106 -0.549,-0.215l0,3.057l-1.069,0l0,-10.389Zm1.069,6.248c0.138,0.119 0.294,0.213 0.467,0.282c0.173,0.07 0.403,0.104 0.69,0.104c0.525,0 0.94,-0.267 1.247,-0.801c0.307,-0.535 0.46,-1.296 0.46,-2.286c0,-0.415 -0.027,-0.791 -0.082,-1.128c-0.054,-0.336 -0.141,-0.626 -0.259,-0.868c-0.119,-0.242 -0.27,-0.43 -0.453,-0.564c-0.183,-0.134 -0.408,-0.2 -0.675,-0.2c-0.723,0 -1.188,0.44 -1.395,1.321l0,4.14Z" style="fill-rule:nonzero;"/><path d="M89.131,43.392c0,0.346 0.047,0.593 0.141,0.742c0.094,0.148 0.225,0.222 0.393,0.222c0.208,0 0.45,-0.054 0.727,-0.163l0.104,0.861c-0.128,0.079 -0.309,0.143 -0.541,0.193c-0.233,0.049 -0.443,0.074 -0.631,0.074c-0.376,0 -0.68,-0.116 -0.913,-0.349c-0.232,-0.232 -0.349,-0.64 -0.349,-1.224l0,-8.979l1.069,0l0,8.623Z" style="fill-rule:nonzero;"/><path d="M91.12,41.447c0,-1.335 0.23,-2.317 0.69,-2.946c0.46,-0.628 1.115,-0.942 1.966,-0.942c0.91,0 1.581,0.322 2.011,0.965c0.431,0.643 0.646,1.617 0.646,2.923c0,1.346 -0.233,2.33 -0.698,2.954c-0.465,0.623 -1.118,0.935 -1.959,0.935c-0.91,0 -1.58,-0.322 -2.011,-0.965c-0.43,-0.643 -0.645,-1.618 -0.645,-2.924Zm1.113,0c0,0.436 0.027,0.832 0.081,1.188c0.055,0.356 0.144,0.663 0.267,0.92c0.124,0.257 0.285,0.457 0.483,0.601c0.198,0.143 0.435,0.215 0.712,0.215c0.515,0 0.9,-0.23 1.158,-0.69c0.257,-0.46 0.386,-1.205 0.386,-2.234c0,-0.425 -0.028,-0.818 -0.082,-1.179c-0.054,-0.362 -0.143,-0.671 -0.267,-0.928c-0.124,-0.257 -0.285,-0.458 -0.483,-0.601c-0.197,-0.144 -0.435,-0.215 -0.712,-0.215c-0.504,0 -0.888,0.232 -1.15,0.697c-0.262,0.465 -0.393,1.207 -0.393,2.226Z" style="fill-rule:nonzero;"/><path d="M99.549,42.531l0.312,1.439l0.074,0l0.223,-1.439l1.128,-4.794l1.083,0l-1.766,6.664c-0.138,0.534 -0.277,1.034 -0.415,1.499c-0.139,0.465 -0.29,0.868 -0.453,1.209c-0.163,0.342 -0.346,0.609 -0.549,0.802c-0.203,0.193 -0.443,0.289 -0.72,0.289c-0.277,0 -0.519,-0.044 -0.727,-0.133l0.178,-1.01c0.138,0.05 0.277,0.06 0.415,0.03c0.139,-0.03 0.27,-0.114 0.394,-0.252c0.123,-0.139 0.237,-0.344 0.341,-0.616c0.104,-0.272 0.195,-0.626 0.275,-1.061l-2.405,-7.421l1.217,0l1.395,4.794Z" style="fill-rule:nonzero;"/><path d="M106.762,45.158l0,-4.408c0,-0.396 -0.012,-0.735 -0.037,-1.017c-0.025,-0.282 -0.077,-0.512 -0.156,-0.69c-0.079,-0.178 -0.188,-0.309 -0.326,-0.393c-0.139,-0.084 -0.322,-0.126 -0.549,-0.126c-0.337,0 -0.621,0.131 -0.854,0.393c-0.232,0.262 -0.393,0.561 -0.482,0.898l0,5.343l-1.069,0l0,-7.421l0.757,0l0.193,0.787l0.045,0c0.207,-0.287 0.455,-0.52 0.742,-0.698c0.287,-0.178 0.653,-0.267 1.098,-0.267c0.376,0 0.685,0.082 0.928,0.245c0.242,0.163 0.432,0.453 0.571,0.868c0.178,-0.346 0.433,-0.618 0.764,-0.816c0.332,-0.198 0.695,-0.297 1.091,-0.297c0.327,0 0.606,0.042 0.839,0.126c0.232,0.084 0.42,0.233 0.564,0.445c0.143,0.213 0.249,0.495 0.319,0.846c0.069,0.352 0.104,0.794 0.104,1.329l0,4.853l-1.069,0l0,-4.72c0,-0.643 -0.062,-1.123 -0.185,-1.439c-0.124,-0.317 -0.409,-0.475 -0.854,-0.475c-0.376,0 -0.675,0.116 -0.898,0.348c-0.222,0.233 -0.378,0.547 -0.467,0.943l0,5.343l-1.069,0Z" style="fill-rule:nonzero;"/><path d="M117.389,44.653c-0.238,0.218 -0.54,0.386 -0.906,0.505c-0.366,0.118 -0.752,0.178 -1.157,0.178c-0.465,0 -0.869,-0.092 -1.21,-0.275c-0.341,-0.183 -0.623,-0.445 -0.846,-0.786c-0.223,-0.342 -0.386,-0.75 -0.49,-1.225c-0.104,-0.475 -0.156,-1.009 -0.156,-1.603c0,-1.266 0.233,-2.231 0.698,-2.894c0.465,-0.663 1.123,-0.994 1.974,-0.994c0.277,0 0.552,0.035 0.824,0.104c0.272,0.069 0.517,0.208 0.734,0.415c0.218,0.208 0.394,0.5 0.527,0.876c0.134,0.376 0.2,0.866 0.2,1.469c0,0.169 -0.007,0.349 -0.022,0.542c-0.015,0.193 -0.032,0.393 -0.052,0.601l-3.769,0c0,0.426 0.034,0.811 0.103,1.158c0.07,0.346 0.179,0.64 0.327,0.883c0.148,0.242 0.339,0.43 0.571,0.564c0.233,0.133 0.522,0.2 0.869,0.2c0.267,0 0.531,-0.049 0.794,-0.148c0.262,-0.099 0.462,-0.218 0.601,-0.356l0.386,0.786Zm-0.832,-3.977c0.02,-0.742 -0.084,-1.287 -0.311,-1.633c-0.228,-0.346 -0.539,-0.519 -0.935,-0.519c-0.455,0 -0.817,0.173 -1.084,0.519c-0.267,0.346 -0.425,0.891 -0.475,1.633l2.805,0Z" style="fill-rule:nonzero;"/><path d="M122.88,45.158l0,-4.527c0,-0.742 -0.087,-1.279 -0.26,-1.61c-0.173,-0.332 -0.482,-0.497 -0.928,-0.497c-0.395,0 -0.722,0.118 -0.979,0.356c-0.257,0.237 -0.445,0.529 -0.564,0.876l0,5.402l-1.069,0l0,-7.421l0.772,0l0.193,0.787l0.045,0c0.188,-0.267 0.442,-0.495 0.764,-0.683c0.322,-0.188 0.705,-0.282 1.15,-0.282c0.317,0 0.596,0.045 0.839,0.134c0.242,0.089 0.445,0.24 0.608,0.452c0.163,0.213 0.287,0.497 0.371,0.854c0.084,0.356 0.126,0.806 0.126,1.35l0,4.809l-1.068,0Z" style="fill-rule:nonzero;"/><path d="M124.854,37.737l0.905,0l0,-1.469l1.069,-0.342l0,1.811l1.602,0l0,0.965l-1.602,0l0,4.422c0,0.436 0.051,0.75 0.155,0.943c0.104,0.193 0.275,0.289 0.512,0.289c0.198,0 0.369,-0.022 0.512,-0.066c0.144,-0.045 0.3,-0.102 0.468,-0.171l0.208,0.846c-0.218,0.109 -0.458,0.195 -0.72,0.26c-0.262,0.064 -0.537,0.096 -0.824,0.096c-0.494,0 -0.848,-0.161 -1.061,-0.482c-0.213,-0.322 -0.319,-0.844 -0.319,-1.566l0,-4.571l-0.905,0l0,-0.965Z" style="fill-rule:nonzero;"/><rect x="60.085" y="58.034" width="20.171" height="20.132" style="fill:#c6c9cc;"/><rect x="85.079" y="66.507" width="17.06" height="10.875" style="fill:#c6c9cc;"/><rect x="109.073" y="58.818" width="15.15" height="18.503" style="fill:#c6c9cc;"/><rect x="128.689" y="69.877" width="15.668" height="7.062" style="fill:#c6c9cc;"/><rect x="128.531" y="66.778" width="15.668" height="2.059" style="fill:#c6c9cc;"/><rect x="128.531" y="63.99" width="15.668" height="2.059" style="fill:#c6c9cc;"/><rect x="128.598" y="61.03" width="15.668" height="2.059" style="fill:#c6c9cc;"/><rect x="84.866" y="62.938" width="17.401" height="1.971" style="fill:#c6c9cc;"/><rect x="84.95" y="60.296" width="17.401" height="1.971" style="fill:#c6c9cc;"/></svg>