<?xml version="1.0" encoding="UTF-8" standalone="no"?><!DOCTYPE svg PUBLIC "-//W3C//DTD SVG 1.1//EN" "http://www.w3.org/Graphics/SVG/1.1/DTD/svg11.dtd"><svg width="100%" height="100%" viewBox="0 0 500 200" version="1.1" xmlns="http://www.w3.org/2000/svg" xmlns:xlink="http://www.w3.org/1999/xlink" xml:space="preserve" xmlns:serif="http://www.serif.com/" style="fill-rule:evenodd;clip-rule:evenodd;stroke-linejoin:round;stroke-miterlimit:1.41421;"><path d="M360.1,76.176c0,-9.697 -7.873,-17.57 -17.57,-17.57l-233.023,0c-9.697,0 -17.57,7.873 -17.57,17.57l0,35.14c0,9.698 7.873,17.571 17.57,17.571l233.023,0c9.697,0 17.57,-7.873 17.57,-17.571l0,-35.14Z" style="fill:#5b6773;"/><path d="M356.578,72.95c0,-9.697 -7.873,-17.57 -17.57,-17.57l-233.023,0c-9.697,0 -17.57,7.873 -17.57,17.57l0,35.14c0,9.698 7.873,17.571 17.57,17.571l233.023,0c9.697,0 17.57,-7.873 17.57,-17.571l0,-35.14Z" style="fill:#6b7b8a;"/><text x="131.479px" y="111.679px" style="font-family:'PTSans-Narrow', 'PT Sans Narrow', sans-serif;font-stretch:condensed;font-size:60.126px;">I Lik<tspan x="218.964px " y="111.679px ">e</tspan> It!</text><path d="M462.202,64.545c0,-16.254 -13.196,-29.45 -29.45,-29.45l-63.23,0c-16.254,0 -29.45,13.196 -29.45,29.45l0,58.9c0,16.253 13.196,29.449 29.45,29.449l63.23,0c16.254,0 29.45,-13.196 29.45,-29.449l0,-58.9Z" style="fill:#5b6773;"/><path d="M458.895,61.194c0,-16.254 -13.196,-29.45 -29.45,-29.45l-63.23,0c-16.254,0 -29.45,13.196 -29.45,29.45l0,58.9c0,16.253 13.196,29.449 29.45,29.449l63.23,0c16.254,0 29.45,-13.196 29.45,-29.449l0,-58.9Z" style="fill:#6b7b8a;"/><path d="M375.334,89.072l3.449,-1.437l2.713,-2.273l2.501,-4.124l4.047,-4.441l2.834,-4.047l2.775,-3.032l3.455,-2.106l3.365,-1.804l2.562,-2.486l2.138,-2.425l2.243,-3.062l1.667,-2.88l1.44,-3.062l1.91,-3.79l1.175,-2.417l1.584,-2.297l2.41,0l2.076,2.349l2.032,2.756l1,3.065l0.046,2.986l-0.167,3.668l-1.167,3.79l-1.41,2.455l-1.819,3.26l-2.365,3.471l-1.833,3.001l2.318,0.515l4.927,-0.439l4.517,-0.121l4.062,0.409l3.304,1.409l3.835,2.365l1.15,2.665l0.29,2.185l-0.515,4.139l-0.273,3.107l2.426,2.349l0.699,2.4l0.107,1.98l-0.392,1.573l-1.036,2.006l-1.804,2.47l0.94,2.198l0.515,2.82l-0.378,3.425l-1.531,2.88l-1.379,2.562l-0.151,2.629l-0.263,1.876l-0.674,1.538l-0.889,1.339l-1.825,2.026l-2.577,2.062l-3.835,0.985l-8.943,1.046l-14.218,-0.561l-14.4,-1.592l-8.594,-1.773l-1.986,-2.623l-1.213,-2.667l-2.289,-5.821l-1.122,-5.366l-0.075,-5.123l0.015,-5.124l0.697,-4.578l0.485,-3.925l1.414,-2.363Z" style="fill:#6b7b8a;"/><path d="M374.008,87.745l3.449,-1.437l2.713,-2.273l2.501,-4.124l4.047,-4.441l2.835,-4.047l2.774,-3.032l3.456,-2.106l3.365,-1.804l2.561,-2.486l2.138,-2.425l2.243,-3.062l1.668,-2.88l1.44,-3.062l1.91,-3.79l1.174,-2.417l1.584,-2.297l2.41,0l2.077,2.349l2.031,2.756l1,3.065l0.046,2.986l-0.167,3.668l-1.167,3.79l-1.41,2.455l-1.818,3.26l-2.365,3.471l-1.834,3.001l2.319,0.515l4.926,-0.439l4.517,-0.121l4.062,0.409l3.305,1.409l3.835,2.365l1.149,2.665l0.291,2.185l-0.515,4.139l-0.274,3.107l2.426,2.349l0.699,2.4l0.107,1.98l-0.392,1.573l-1.036,2.006l-1.804,2.47l0.94,2.198l0.515,2.82l-0.378,3.425l-1.531,2.88l-1.379,2.562l-0.151,2.629l-0.263,1.876l-0.674,1.538l-0.889,1.339l-1.825,2.026l-2.576,2.062l-3.835,0.985l-8.944,1.046l-14.218,-0.561l-14.4,-1.592l-8.594,-1.773l-1.986,-2.623l-1.213,-2.667l-2.289,-5.821l-1.121,-5.366l-0.076,-5.123l0.015,-5.124l0.697,-4.578l0.485,-3.925l1.414,-2.363Z" style="fill:#29cd4a;"/><path d="M368.163,87.056l-2.774,-0.516l-3.138,-0.424l-3.32,-0.212l-2.318,0.803l-1.41,2.062l-1.172,3.429l-0.192,3.664l-0.167,8.14l0.167,6.563l0.485,4.639l0.454,5.275l1.061,4.233l1.092,3.27l1.152,2.168l2.092,0.409l4.183,0.394l5.548,-0.288l3.309,-0.933l0.17,-2.277l-0.887,-2.853l-1.092,-3.017l-1,-5.517l-0.485,-6.26l-0.181,-5.169l0.015,-4.957l-0.152,-4.547l0.273,-3.835l-0.251,-2.601l-1.462,-1.643Z" style="fill:#6b7b8a;"/><path d="M366.971,86l-2.774,-0.515l-3.138,-0.425l-3.32,-0.212l-2.318,0.803l-1.41,2.062l-1.172,3.429l-0.192,3.664l-0.167,8.14l0.167,6.564l0.485,4.638l0.454,5.275l1.061,4.233l1.092,3.27l1.152,2.168l2.092,0.409l4.183,0.394l5.548,-0.288l3.309,-0.933l0.17,-2.277l-0.887,-2.853l-1.092,-3.016l-1,-5.518l-0.485,-6.26l-0.181,-5.169l0.015,-4.957l-0.152,-4.547l0.273,-3.835l-0.25,-2.601l-1.463,-1.643Z" style="fill:#29cd4a;"/></svg>