<?xml version="1.0" encoding="UTF-8" standalone="no"?><!DOCTYPE svg PUBLIC "-//W3C//DTD SVG 1.1//EN" "http://www.w3.org/Graphics/SVG/1.1/DTD/svg11.dtd"><svg width="100%" height="100%" viewBox="0 0 100 100" version="1.1" xmlns="http://www.w3.org/2000/svg" xmlns:xlink="http://www.w3.org/1999/xlink" xml:space="preserve" xmlns:serif="http://www.serif.com/" style="fill-rule:evenodd;clip-rule:evenodd;stroke-linejoin:round;stroke-miterlimit:1.41421;"><ellipse cx="49.641" cy="50.86" rx="38.982" ry="39.016" style="fill:#cbc1c1;"/><path d="M74.255,43.756c0,-4.653 -3.606,-8.431 -8.048,-8.431l-31.553,0c-4.442,0 -8.048,3.778 -8.048,8.431l0,16.862c0,4.654 3.606,8.432 8.048,8.432l31.553,0c4.442,0 8.048,-3.778 8.048,-8.432l0,-16.862Z" style="fill:#f6f6f6;"/><path d="M49.028,56.998c0.862,0.736 2.131,0.736 2.993,0c5.555,-4.745 24.677,-21.078 24.677,-21.078l-52.347,0c0,0 19.122,16.333 24.677,21.078Z" style="fill:#cbc1c1;"/><path d="M49.597,54.652c0.537,0.458 1.328,0.459 1.866,0.001c3.411,-2.905 15.288,-13.02 20.722,-17.647c0.425,-0.362 0.579,-0.95 0.387,-1.474c-0.193,-0.523 -0.692,-0.871 -1.249,-0.871c-8.976,-0.004 -32.215,-0.013 -41.385,-0.016c-0.586,0 -1.111,0.365 -1.314,0.915c-0.203,0.551 -0.041,1.169 0.405,1.55c5.493,4.685 17.188,14.659 20.568,17.542Z" style="fill:#f6f6f6;"/></svg>