<?xml version="1.0" encoding="UTF-8" standalone="no"?><!DOCTYPE svg PUBLIC "-//W3C//DTD SVG 1.1//EN" "http://www.w3.org/Graphics/SVG/1.1/DTD/svg11.dtd"><svg width="100%" height="100%" viewBox="0 0 200 200" version="1.1" xmlns="http://www.w3.org/2000/svg" xmlns:xlink="http://www.w3.org/1999/xlink" xml:space="preserve" xmlns:serif="http://www.serif.com/" style="fill-rule:evenodd;clip-rule:evenodd;stroke-linejoin:round;stroke-miterlimit:1.41421;"><path d="M189.878,81.045c0,-4.651 -3.775,-8.426 -8.426,-8.426l-162.201,0c-4.651,0 -8.426,3.775 -8.426,8.426l0,16.852c0,4.651 3.775,8.427 8.426,8.427l162.201,0c4.651,0 8.426,-3.776 8.426,-8.427l0,-16.852Z" style="fill:#5b6773;"/><path d="M188.433,79.245c0,-4.651 -3.775,-8.426 -8.426,-8.426l-162.201,0c-4.651,0 -8.426,3.775 -8.426,8.426l0,16.852c0,4.651 3.775,8.426 8.426,8.426l162.201,0c4.651,0 8.426,-3.775 8.426,-8.426l0,-16.852Z" style="fill:#6b7b8a;"/><path d="M27.773,77.314c0.539,-0.152 1.112,-0.253 1.718,-0.303c0.606,-0.051 1.204,-0.076 1.794,-0.076c0.673,0 1.339,0.076 1.995,0.227c0.657,0.152 1.251,0.43 1.781,0.834c0.531,0.404 0.96,0.96 1.289,1.667c0.328,0.707 0.492,1.608 0.492,2.703c0,1.061 -0.156,1.962 -0.467,2.703c-0.312,0.741 -0.724,1.343 -1.238,1.806c-0.514,0.463 -1.103,0.8 -1.768,1.011c-0.665,0.21 -1.352,0.315 -2.059,0.315c-0.067,0 -0.177,0 -0.328,0c-0.152,0 -0.312,-0.004 -0.48,-0.012c-0.169,-0.009 -0.333,-0.021 -0.493,-0.038c-0.16,-0.017 -0.274,-0.034 -0.341,-0.051l0,6.72l-1.895,0l0,-17.506Zm3.613,1.364c-0.337,0 -0.661,0.013 -0.973,0.038c-0.311,0.025 -0.56,0.063 -0.745,0.113l0,7.528c0.067,0.034 0.173,0.055 0.316,0.063c0.143,0.009 0.29,0.017 0.442,0.026c0.151,0.008 0.299,0.012 0.442,0.012c0.143,0 0.248,0 0.316,0c0.471,0 0.926,-0.059 1.364,-0.177c0.438,-0.117 0.825,-0.332 1.162,-0.644c0.337,-0.311 0.61,-0.732 0.821,-1.263c0.21,-0.53 0.315,-1.2 0.315,-2.008c0,-0.707 -0.096,-1.297 -0.29,-1.768c-0.194,-0.472 -0.446,-0.851 -0.758,-1.137c-0.311,-0.286 -0.678,-0.488 -1.099,-0.606c-0.421,-0.118 -0.859,-0.177 -1.313,-0.177Z" style="fill-rule:nonzero;"/><path d="M45.86,93.961c-0.404,0.37 -0.918,0.657 -1.541,0.859c-0.623,0.202 -1.28,0.303 -1.97,0.303c-0.792,0 -1.478,-0.156 -2.059,-0.468c-0.581,-0.311 -1.061,-0.757 -1.44,-1.338c-0.379,-0.581 -0.656,-1.276 -0.833,-2.084c-0.177,-0.809 -0.266,-1.718 -0.266,-2.729c0,-2.155 0.396,-3.797 1.188,-4.925c0.791,-1.129 1.911,-1.693 3.359,-1.693c0.472,0 0.939,0.059 1.402,0.177c0.464,0.118 0.88,0.354 1.251,0.707c0.37,0.354 0.669,0.851 0.897,1.491c0.227,0.64 0.341,1.473 0.341,2.5c0,0.287 -0.013,0.594 -0.038,0.922c-0.025,0.329 -0.055,0.67 -0.089,1.024l-6.416,0c0,0.724 0.059,1.38 0.177,1.97c0.118,0.589 0.303,1.09 0.556,1.503c0.252,0.412 0.576,0.732 0.972,0.96c0.396,0.227 0.889,0.341 1.478,0.341c0.455,0 0.905,-0.084 1.351,-0.253c0.447,-0.168 0.788,-0.37 1.024,-0.606l0.656,1.339Zm-1.414,-6.77c0.033,-1.263 -0.143,-2.189 -0.531,-2.779c-0.387,-0.589 -0.918,-0.884 -1.591,-0.884c-0.775,0 -1.39,0.295 -1.844,0.884c-0.455,0.59 -0.724,1.516 -0.809,2.779l4.775,0Z" style="fill-rule:nonzero;"/><path d="M48.74,82.189l1.288,0l0.329,1.339l0.076,0c0.235,-0.488 0.543,-0.872 0.922,-1.149c0.378,-0.278 0.837,-0.417 1.376,-0.417c0.388,0 0.825,0.076 1.314,0.227l-0.354,1.844c-0.438,-0.151 -0.825,-0.227 -1.162,-0.227c-0.539,0 -0.977,0.156 -1.313,0.467c-0.337,0.312 -0.556,0.729 -0.657,1.251l0,9.296l-1.819,0l0,-12.631Z" style="fill-rule:nonzero;"/><path d="M55.459,92.748c0.337,0.202 0.737,0.375 1.2,0.518c0.464,0.143 0.939,0.215 1.428,0.215c0.555,0 1.027,-0.139 1.414,-0.417c0.388,-0.278 0.581,-0.728 0.581,-1.351c0,-0.522 -0.118,-0.952 -0.353,-1.289c-0.236,-0.337 -0.535,-0.64 -0.897,-0.909c-0.362,-0.27 -0.754,-0.518 -1.175,-0.745c-0.421,-0.228 -0.812,-0.501 -1.174,-0.821c-0.363,-0.32 -0.661,-0.699 -0.897,-1.137c-0.236,-0.438 -0.354,-0.994 -0.354,-1.667c0,-1.078 0.291,-1.891 0.872,-2.438c0.581,-0.547 1.402,-0.821 2.463,-0.821c0.69,0 1.288,0.063 1.793,0.189c0.505,0.127 0.943,0.299 1.314,0.518l-0.48,1.516c-0.32,-0.168 -0.691,-0.307 -1.112,-0.417c-0.421,-0.109 -0.85,-0.164 -1.288,-0.164c-0.606,0 -1.048,0.126 -1.326,0.379c-0.278,0.253 -0.417,0.648 -0.417,1.187c0,0.421 0.118,0.779 0.354,1.074c0.235,0.294 0.534,0.564 0.896,0.808c0.362,0.244 0.754,0.493 1.175,0.745c0.421,0.253 0.813,0.552 1.175,0.897c0.362,0.345 0.661,0.758 0.896,1.238c0.236,0.48 0.354,1.082 0.354,1.806c0,0.472 -0.076,0.918 -0.227,1.339c-0.152,0.421 -0.383,0.787 -0.695,1.099c-0.312,0.311 -0.699,0.56 -1.162,0.745c-0.463,0.185 -1.006,0.278 -1.629,0.278c-0.741,0 -1.381,-0.072 -1.92,-0.215c-0.539,-0.143 -0.994,-0.333 -1.364,-0.568l0.555,-1.592Z" style="fill-rule:nonzero;"/><path d="M63.644,88.504c0,-2.273 0.392,-3.945 1.175,-5.014c0.783,-1.069 1.898,-1.604 3.347,-1.604c1.549,0 2.69,0.547 3.423,1.642c0.732,1.095 1.099,2.753 1.099,4.976c0,2.291 -0.396,3.966 -1.188,5.027c-0.791,1.061 -1.903,1.592 -3.334,1.592c-1.55,0 -2.691,-0.548 -3.423,-1.642c-0.733,-1.095 -1.099,-2.754 -1.099,-4.977Zm1.895,0c0,0.741 0.046,1.415 0.139,2.021c0.092,0.607 0.244,1.129 0.454,1.566c0.211,0.438 0.484,0.779 0.821,1.024c0.337,0.244 0.741,0.366 1.213,0.366c0.876,0 1.532,-0.392 1.97,-1.175c0.438,-0.783 0.657,-2.05 0.657,-3.802c0,-0.724 -0.046,-1.393 -0.139,-2.008c-0.093,-0.615 -0.244,-1.141 -0.455,-1.579c-0.21,-0.438 -0.484,-0.779 -0.821,-1.023c-0.336,-0.244 -0.741,-0.366 -1.212,-0.366c-0.859,0 -1.512,0.396 -1.958,1.187c-0.446,0.792 -0.669,2.055 -0.669,3.789Z" style="fill-rule:nonzero;"/><path d="M81.579,94.82l0,-7.705c0,-1.263 -0.147,-2.177 -0.442,-2.741c-0.294,-0.564 -0.821,-0.846 -1.578,-0.846c-0.674,0 -1.23,0.202 -1.668,0.606c-0.438,0.404 -0.758,0.901 -0.96,1.491l0,9.195l-1.818,0l0,-12.631l1.313,0l0.329,1.339l0.075,0c0.32,-0.455 0.754,-0.842 1.301,-1.162c0.548,-0.32 1.2,-0.48 1.958,-0.48c0.539,0 1.015,0.076 1.427,0.227c0.413,0.152 0.758,0.409 1.036,0.771c0.278,0.362 0.488,0.846 0.631,1.452c0.144,0.607 0.215,1.373 0.215,2.299l0,8.185l-1.819,0Z" style="fill-rule:nonzero;"/><path d="M86.076,82.947c0.488,-0.303 1.082,-0.539 1.781,-0.707c0.699,-0.169 1.435,-0.253 2.21,-0.253c0.707,0 1.276,0.105 1.705,0.316c0.43,0.21 0.766,0.497 1.011,0.859c0.244,0.362 0.404,0.774 0.48,1.238c0.075,0.463 0.113,0.947 0.113,1.452c0,1.01 -0.021,1.996 -0.063,2.956c-0.042,0.959 -0.063,1.869 -0.063,2.728c0,0.64 0.021,1.233 0.063,1.781c0.042,0.547 0.122,1.065 0.24,1.553l-1.389,0l-0.43,-1.49l-0.101,0c-0.252,0.438 -0.623,0.817 -1.111,1.137c-0.489,0.32 -1.145,0.48 -1.971,0.48c-0.909,0 -1.654,-0.316 -2.235,-0.948c-0.581,-0.631 -0.872,-1.503 -0.872,-2.614c0,-0.724 0.122,-1.331 0.367,-1.819c0.244,-0.488 0.589,-0.884 1.035,-1.187c0.447,-0.303 0.977,-0.518 1.592,-0.645c0.614,-0.126 1.301,-0.189 2.059,-0.189c0.168,0 0.336,0 0.505,0c0.168,0 0.345,0.008 0.53,0.025c0.051,-0.522 0.076,-0.985 0.076,-1.389c0,-0.96 -0.143,-1.634 -0.429,-2.021c-0.287,-0.387 -0.809,-0.581 -1.567,-0.581c-0.471,0 -0.985,0.072 -1.541,0.215c-0.555,0.143 -1.018,0.324 -1.389,0.543l-0.606,-1.44Zm5.482,6.113c-0.169,-0.017 -0.337,-0.029 -0.506,-0.038c-0.168,-0.008 -0.337,-0.012 -0.505,-0.012c-0.404,0 -0.8,0.033 -1.187,0.101c-0.388,0.067 -0.733,0.185 -1.036,0.353c-0.303,0.169 -0.543,0.396 -0.72,0.682c-0.177,0.287 -0.265,0.649 -0.265,1.087c0,0.673 0.164,1.195 0.493,1.566c0.328,0.37 0.753,0.556 1.275,0.556c0.707,0 1.255,-0.169 1.642,-0.506c0.387,-0.336 0.657,-0.707 0.809,-1.111l0,-2.678Z" style="fill-rule:nonzero;"/><path d="M98.252,91.814c0,0.589 0.08,1.01 0.24,1.263c0.16,0.252 0.383,0.379 0.669,0.379c0.354,0 0.766,-0.093 1.238,-0.278l0.177,1.465c-0.219,0.135 -0.527,0.244 -0.922,0.328c-0.396,0.084 -0.754,0.127 -1.074,0.127c-0.64,0 -1.158,-0.198 -1.553,-0.594c-0.396,-0.396 -0.594,-1.091 -0.594,-2.084l0,-15.283l1.819,0l0,14.677Z" style="fill-rule:nonzero;"/><path d="M107.674,77.137c0.269,-0.051 0.568,-0.088 0.897,-0.114c0.328,-0.025 0.661,-0.042 0.998,-0.05c0.336,-0.009 0.669,-0.017 0.997,-0.026c0.329,-0.008 0.636,-0.012 0.922,-0.012c1.23,0 2.274,0.21 3.133,0.631c0.859,0.421 1.558,1.023 2.097,1.807c0.538,0.783 0.926,1.722 1.162,2.816c0.235,1.095 0.353,2.316 0.353,3.663c0,1.213 -0.114,2.375 -0.341,3.486c-0.227,1.112 -0.61,2.088 -1.149,2.93c-0.539,0.842 -1.251,1.516 -2.135,2.021c-0.884,0.505 -1.991,0.758 -3.322,0.758c-0.219,0 -0.496,-0.004 -0.833,-0.013c-0.337,-0.008 -0.686,-0.025 -1.049,-0.05c-0.362,-0.025 -0.698,-0.046 -1.01,-0.063c-0.312,-0.017 -0.552,-0.042 -0.72,-0.076l0,-17.708Zm3.916,1.541c-0.169,0 -0.35,0 -0.544,0c-0.193,0 -0.383,0.008 -0.568,0.025c-0.185,0.017 -0.358,0.034 -0.518,0.051c-0.16,0.017 -0.29,0.033 -0.391,0.05l0,14.399c0.067,0.017 0.189,0.029 0.366,0.038c0.177,0.008 0.362,0.017 0.556,0.025c0.193,0.009 0.379,0.017 0.555,0.025c0.177,0.009 0.308,0.013 0.392,0.013c0.926,0 1.701,-0.202 2.324,-0.606c0.623,-0.404 1.116,-0.948 1.478,-1.63c0.362,-0.682 0.619,-1.473 0.77,-2.374c0.152,-0.901 0.228,-1.857 0.228,-2.867c0,-0.893 -0.068,-1.769 -0.203,-2.627c-0.134,-0.859 -0.374,-1.621 -0.719,-2.287c-0.346,-0.665 -0.817,-1.204 -1.415,-1.616c-0.598,-0.413 -1.368,-0.619 -2.311,-0.619Z" style="fill-rule:nonzero;"/><path d="M128.363,93.961c-0.404,0.37 -0.918,0.657 -1.541,0.859c-0.623,0.202 -1.28,0.303 -1.97,0.303c-0.792,0 -1.478,-0.156 -2.059,-0.468c-0.581,-0.311 -1.061,-0.757 -1.44,-1.338c-0.379,-0.581 -0.657,-1.276 -0.834,-2.084c-0.177,-0.809 -0.265,-1.718 -0.265,-2.729c0,-2.155 0.396,-3.797 1.187,-4.925c0.792,-1.129 1.912,-1.693 3.36,-1.693c0.472,0 0.939,0.059 1.402,0.177c0.463,0.118 0.88,0.354 1.25,0.707c0.371,0.354 0.67,0.851 0.897,1.491c0.228,0.64 0.341,1.473 0.341,2.5c0,0.287 -0.012,0.594 -0.038,0.922c-0.025,0.329 -0.054,0.67 -0.088,1.024l-6.416,0c0,0.724 0.059,1.38 0.176,1.97c0.118,0.589 0.304,1.09 0.556,1.503c0.253,0.412 0.577,0.732 0.973,0.96c0.395,0.227 0.888,0.341 1.478,0.341c0.454,0 0.905,-0.084 1.351,-0.253c0.446,-0.168 0.787,-0.37 1.023,-0.606l0.657,1.339Zm-1.415,-6.77c0.034,-1.263 -0.143,-2.189 -0.53,-2.779c-0.388,-0.589 -0.918,-0.884 -1.592,-0.884c-0.774,0 -1.389,0.295 -1.844,0.884c-0.454,0.59 -0.724,1.516 -0.808,2.779l4.774,0Z" style="fill-rule:nonzero;"/><path d="M129.98,82.189l1.54,0l0,-2.501l1.819,-0.581l0,3.082l2.728,0l0,1.642l-2.728,0l0,7.528c0,0.741 0.089,1.276 0.266,1.604c0.176,0.328 0.467,0.493 0.871,0.493c0.337,0 0.627,-0.038 0.872,-0.114c0.244,-0.076 0.509,-0.173 0.795,-0.291l0.354,1.44c-0.371,0.186 -0.779,0.333 -1.225,0.442c-0.447,0.11 -0.914,0.165 -1.402,0.165c-0.842,0 -1.444,-0.274 -1.806,-0.821c-0.362,-0.548 -0.544,-1.436 -0.544,-2.665l0,-7.781l-1.54,0l0,-1.642Z" style="fill-rule:nonzero;"/><path d="M138.063,82.947c0.488,-0.303 1.082,-0.539 1.781,-0.707c0.699,-0.169 1.436,-0.253 2.21,-0.253c0.708,0 1.276,0.105 1.705,0.316c0.43,0.21 0.767,0.497 1.011,0.859c0.244,0.362 0.404,0.774 0.48,1.238c0.076,0.463 0.114,0.947 0.114,1.452c0,1.01 -0.022,1.996 -0.064,2.956c-0.042,0.959 -0.063,1.869 -0.063,2.728c0,0.64 0.021,1.233 0.063,1.781c0.042,0.547 0.122,1.065 0.24,1.553l-1.389,0l-0.429,-1.49l-0.101,0c-0.253,0.438 -0.624,0.817 -1.112,1.137c-0.488,0.32 -1.145,0.48 -1.97,0.48c-0.91,0 -1.655,-0.316 -2.236,-0.948c-0.581,-0.631 -0.871,-1.503 -0.871,-2.614c0,-0.724 0.122,-1.331 0.366,-1.819c0.244,-0.488 0.589,-0.884 1.036,-1.187c0.446,-0.303 0.976,-0.518 1.591,-0.645c0.615,-0.126 1.301,-0.189 2.059,-0.189c0.168,0 0.337,0 0.505,0c0.168,0 0.345,0.008 0.53,0.025c0.051,-0.522 0.076,-0.985 0.076,-1.389c0,-0.96 -0.143,-1.634 -0.429,-2.021c-0.286,-0.387 -0.809,-0.581 -1.566,-0.581c-0.472,0 -0.986,0.072 -1.541,0.215c-0.556,0.143 -1.019,0.324 -1.39,0.543l-0.606,-1.44Zm5.482,6.113c-0.169,-0.017 -0.337,-0.029 -0.505,-0.038c-0.169,-0.008 -0.337,-0.012 -0.506,-0.012c-0.404,0 -0.8,0.033 -1.187,0.101c-0.387,0.067 -0.733,0.185 -1.036,0.353c-0.303,0.169 -0.543,0.396 -0.72,0.682c-0.176,0.287 -0.265,0.649 -0.265,1.087c0,0.673 0.164,1.195 0.493,1.566c0.328,0.37 0.753,0.556 1.275,0.556c0.708,0 1.255,-0.169 1.642,-0.506c0.388,-0.336 0.657,-0.707 0.809,-1.111l0,-2.678Z" style="fill-rule:nonzero;"/><path d="M148.597,82.189l1.819,0l0,12.631l-1.819,0l0,-12.631Zm-0.328,-3.84c0,-0.404 0.113,-0.732 0.341,-0.985c0.227,-0.252 0.526,-0.379 0.896,-0.379c0.371,0 0.678,0.122 0.922,0.367c0.245,0.244 0.367,0.576 0.367,0.997c0,0.405 -0.122,0.72 -0.367,0.948c-0.244,0.227 -0.551,0.341 -0.922,0.341c-0.37,0 -0.669,-0.118 -0.896,-0.354c-0.228,-0.236 -0.341,-0.547 -0.341,-0.935Z" style="fill-rule:nonzero;"/><path d="M155.721,91.814c0,0.589 0.08,1.01 0.24,1.263c0.16,0.252 0.383,0.379 0.669,0.379c0.354,0 0.766,-0.093 1.238,-0.278l0.177,1.465c-0.219,0.135 -0.527,0.244 -0.922,0.328c-0.396,0.084 -0.754,0.127 -1.074,0.127c-0.64,0 -1.158,-0.198 -1.554,-0.594c-0.395,-0.396 -0.593,-1.091 -0.593,-2.084l0,-15.283l1.819,0l0,14.677Z" style="fill-rule:nonzero;"/><path d="M159.459,92.748c0.337,0.202 0.737,0.375 1.2,0.518c0.463,0.143 0.939,0.215 1.427,0.215c0.556,0 1.028,-0.139 1.415,-0.417c0.387,-0.278 0.581,-0.728 0.581,-1.351c0,-0.522 -0.118,-0.952 -0.354,-1.289c-0.235,-0.337 -0.534,-0.64 -0.896,-0.909c-0.363,-0.27 -0.754,-0.518 -1.175,-0.745c-0.421,-0.228 -0.813,-0.501 -1.175,-0.821c-0.362,-0.32 -0.661,-0.699 -0.897,-1.137c-0.235,-0.438 -0.353,-0.994 -0.353,-1.667c0,-1.078 0.29,-1.891 0.871,-2.438c0.581,-0.547 1.402,-0.821 2.463,-0.821c0.691,0 1.289,0.063 1.794,0.189c0.505,0.127 0.943,0.299 1.313,0.518l-0.48,1.516c-0.32,-0.168 -0.69,-0.307 -1.111,-0.417c-0.421,-0.109 -0.851,-0.164 -1.288,-0.164c-0.607,0 -1.049,0.126 -1.327,0.379c-0.277,0.253 -0.416,0.648 -0.416,1.187c0,0.421 0.118,0.779 0.353,1.074c0.236,0.294 0.535,0.564 0.897,0.808c0.362,0.244 0.754,0.493 1.175,0.745c0.421,0.253 0.812,0.552 1.174,0.897c0.362,0.345 0.661,0.758 0.897,1.238c0.236,0.48 0.354,1.082 0.354,1.806c0,0.472 -0.076,0.918 -0.228,1.339c-0.151,0.421 -0.383,0.787 -0.694,1.099c-0.312,0.311 -0.699,0.56 -1.162,0.745c-0.463,0.185 -1.007,0.278 -1.63,0.278c-0.741,0 -1.381,-0.072 -1.919,-0.215c-0.539,-0.143 -0.994,-0.333 -1.365,-0.568l0.556,-1.592Z" style="fill-rule:nonzero;"/></svg>