<?xml version="1.0" encoding="UTF-8" standalone="no"?>
<!DOCTYPE svg PUBLIC "-//W3C//DTD SVG 1.1//EN" "http://www.w3.org/Graphics/SVG/1.1/DTD/svg11.dtd">
<svg width="100%" height="100%" viewBox="0 0 200 50" version="1.1" xmlns="http://www.w3.org/2000/svg" xmlns:xlink="http://www.w3.org/1999/xlink" xml:space="preserve" xmlns:serif="http://www.serif.com/" style="fill-rule:evenodd;clip-rule:evenodd;stroke-linejoin:round;stroke-miterlimit:1.41421;">
    <g transform="matrix(1,0,0,1,-5.45973,-63.4649)">
        <path d="M195.089,80.316C195.089,75.666 191.313,71.89 186.662,71.89L24.461,71.89C19.811,71.89 16.035,75.666 16.035,80.316L16.035,97.169C16.035,101.819 19.811,105.595 24.461,105.595L186.662,105.595C191.313,105.595 195.089,101.819 195.089,97.169L195.089,80.316Z" style="fill:rgb(91,103,115);"/>
    </g>
    <g transform="matrix(1,0,0,1,-6.90474,-65.2651)">
        <path d="M195.089,80.316C195.089,75.666 191.313,71.89 186.662,71.89L24.461,71.89C19.811,71.89 16.035,75.666 16.035,80.316L16.035,97.169C16.035,101.819 19.811,105.595 24.461,105.595L186.662,105.595C191.313,105.595 195.089,101.819 195.089,97.169L195.089,80.316Z" style="fill:rgb(107,123,138);"/>
    </g>
    <g transform="matrix(1.26305,0,0,1.26305,9.23953,-97.4059)">
        <path d="M16.077,87.507C16.504,87.387 16.957,87.307 17.437,87.267C17.917,87.227 18.391,87.207 18.857,87.207C19.391,87.207 19.917,87.267 20.437,87.387C20.957,87.507 21.427,87.727 21.847,88.047C22.267,88.367 22.607,88.807 22.867,89.367C23.127,89.927 23.257,90.641 23.257,91.507C23.257,92.347 23.134,93.061 22.887,93.647C22.641,94.234 22.314,94.711 21.907,95.077C21.501,95.444 21.034,95.711 20.507,95.877C19.981,96.044 19.437,96.127 18.877,96.127C18.824,96.127 18.737,96.127 18.617,96.127C18.497,96.127 18.371,96.124 18.237,96.117C18.104,96.111 17.974,96.101 17.847,96.087C17.721,96.074 17.631,96.061 17.577,96.047L17.577,101.367L16.077,101.367L16.077,87.507ZM18.937,88.587C18.671,88.587 18.414,88.597 18.167,88.617C17.921,88.637 17.724,88.667 17.577,88.707L17.577,94.667C17.631,94.694 17.714,94.711 17.827,94.717C17.941,94.724 18.057,94.731 18.177,94.737C18.297,94.744 18.414,94.747 18.527,94.747C18.641,94.747 18.724,94.747 18.777,94.747C19.151,94.747 19.511,94.701 19.857,94.607C20.204,94.514 20.511,94.344 20.777,94.097C21.044,93.851 21.261,93.517 21.427,93.097C21.594,92.677 21.677,92.147 21.677,91.507C21.677,90.947 21.601,90.481 21.447,90.107C21.294,89.734 21.094,89.434 20.847,89.207C20.601,88.981 20.311,88.821 19.977,88.727C19.644,88.634 19.297,88.587 18.937,88.587Z" style="fill-rule:nonzero;"/>
        <path d="M30.397,100.687C30.077,100.981 29.671,101.207 29.177,101.367C28.684,101.527 28.164,101.607 27.617,101.607C26.991,101.607 26.447,101.484 25.987,101.237C25.527,100.991 25.147,100.637 24.847,100.177C24.547,99.717 24.327,99.167 24.187,98.527C24.047,97.887 23.977,97.167 23.977,96.367C23.977,94.661 24.291,93.361 24.917,92.467C25.544,91.574 26.431,91.127 27.577,91.127C27.951,91.127 28.321,91.174 28.687,91.267C29.054,91.361 29.384,91.547 29.677,91.827C29.971,92.107 30.207,92.501 30.387,93.007C30.567,93.514 30.657,94.174 30.657,94.987C30.657,95.214 30.647,95.457 30.627,95.717C30.607,95.977 30.584,96.247 30.557,96.527L25.477,96.527C25.477,97.101 25.524,97.621 25.617,98.087C25.711,98.554 25.857,98.951 26.057,99.277C26.257,99.604 26.514,99.857 26.827,100.037C27.141,100.217 27.531,100.307 27.997,100.307C28.357,100.307 28.714,100.241 29.067,100.107C29.421,99.974 29.691,99.814 29.877,99.627L30.397,100.687ZM29.277,95.327C29.304,94.327 29.164,93.594 28.857,93.127C28.551,92.661 28.131,92.427 27.597,92.427C26.984,92.427 26.497,92.661 26.137,93.127C25.777,93.594 25.564,94.327 25.497,95.327L29.277,95.327Z" style="fill-rule:nonzero;"/>
        <path d="M32.677,91.367L33.697,91.367L33.957,92.427L34.017,92.427C34.204,92.041 34.447,91.737 34.747,91.517C35.047,91.297 35.411,91.187 35.837,91.187C36.144,91.187 36.491,91.247 36.877,91.367L36.597,92.827C36.251,92.707 35.944,92.647 35.677,92.647C35.251,92.647 34.904,92.771 34.637,93.017C34.371,93.264 34.197,93.594 34.117,94.007L34.117,101.367L32.677,101.367L32.677,91.367Z" style="fill-rule:nonzero;"/>
        <path d="M37.997,99.727C38.264,99.887 38.581,100.024 38.947,100.137C39.314,100.251 39.691,100.307 40.077,100.307C40.517,100.307 40.891,100.197 41.197,99.977C41.504,99.757 41.657,99.401 41.657,98.907C41.657,98.494 41.564,98.154 41.377,97.887C41.191,97.621 40.954,97.381 40.667,97.167C40.381,96.954 40.071,96.757 39.737,96.577C39.404,96.397 39.094,96.181 38.807,95.927C38.521,95.674 38.284,95.374 38.097,95.027C37.911,94.681 37.817,94.241 37.817,93.707C37.817,92.854 38.047,92.211 38.507,91.777C38.967,91.344 39.617,91.127 40.457,91.127C41.004,91.127 41.477,91.177 41.877,91.277C42.277,91.377 42.624,91.514 42.917,91.687L42.537,92.887C42.284,92.754 41.991,92.644 41.657,92.557C41.324,92.471 40.984,92.427 40.637,92.427C40.157,92.427 39.807,92.527 39.587,92.727C39.367,92.927 39.257,93.241 39.257,93.667C39.257,94.001 39.351,94.284 39.537,94.517C39.724,94.751 39.961,94.964 40.247,95.157C40.534,95.351 40.844,95.547 41.177,95.747C41.511,95.947 41.821,96.184 42.107,96.457C42.394,96.731 42.631,97.057 42.817,97.437C43.004,97.817 43.097,98.294 43.097,98.867C43.097,99.241 43.037,99.594 42.917,99.927C42.797,100.261 42.614,100.551 42.367,100.797C42.121,101.044 41.814,101.241 41.447,101.387C41.081,101.534 40.651,101.607 40.157,101.607C39.571,101.607 39.064,101.551 38.637,101.437C38.211,101.324 37.851,101.174 37.557,100.987L37.997,99.727Z" style="fill-rule:nonzero;"/>
        <path d="M44.477,96.367C44.477,94.567 44.787,93.244 45.407,92.397C46.027,91.551 46.911,91.127 48.057,91.127C49.284,91.127 50.187,91.561 50.767,92.427C51.347,93.294 51.637,94.607 51.637,96.367C51.637,98.181 51.324,99.507 50.697,100.347C50.071,101.187 49.191,101.607 48.057,101.607C46.831,101.607 45.927,101.174 45.347,100.307C44.767,99.441 44.477,98.127 44.477,96.367ZM45.977,96.367C45.977,96.954 46.014,97.487 46.087,97.967C46.161,98.447 46.281,98.861 46.447,99.207C46.614,99.554 46.831,99.824 47.097,100.017C47.364,100.211 47.684,100.307 48.057,100.307C48.751,100.307 49.271,99.997 49.617,99.377C49.964,98.757 50.137,97.754 50.137,96.367C50.137,95.794 50.101,95.264 50.027,94.777C49.954,94.291 49.834,93.874 49.667,93.527C49.501,93.181 49.284,92.911 49.017,92.717C48.751,92.524 48.431,92.427 48.057,92.427C47.377,92.427 46.861,92.741 46.507,93.367C46.154,93.994 45.977,94.994 45.977,96.367Z" style="fill-rule:nonzero;"/>
        <path d="M58.677,101.367L58.677,95.267C58.677,94.267 58.561,93.544 58.327,93.097C58.094,92.651 57.677,92.427 57.077,92.427C56.544,92.427 56.104,92.587 55.757,92.907C55.411,93.227 55.157,93.621 54.997,94.087L54.997,101.367L53.557,101.367L53.557,91.367L54.597,91.367L54.857,92.427L54.917,92.427C55.171,92.067 55.514,91.761 55.947,91.507C56.381,91.254 56.897,91.127 57.497,91.127C57.924,91.127 58.301,91.187 58.627,91.307C58.954,91.427 59.227,91.631 59.447,91.917C59.667,92.204 59.834,92.587 59.947,93.067C60.061,93.547 60.117,94.154 60.117,94.887L60.117,101.367L58.677,101.367Z" style="fill-rule:nonzero;"/>
        <path d="M62.237,91.967C62.624,91.727 63.094,91.541 63.647,91.407C64.201,91.274 64.784,91.207 65.397,91.207C65.957,91.207 66.407,91.291 66.747,91.457C67.087,91.624 67.354,91.851 67.547,92.137C67.741,92.424 67.867,92.751 67.927,93.117C67.987,93.484 68.017,93.867 68.017,94.267C68.017,95.067 68.001,95.847 67.967,96.607C67.934,97.367 67.917,98.087 67.917,98.767C67.917,99.274 67.934,99.744 67.967,100.177C68.001,100.611 68.064,101.021 68.157,101.407L67.057,101.407L66.717,100.227L66.637,100.227C66.437,100.574 66.144,100.874 65.757,101.127C65.371,101.381 64.851,101.507 64.197,101.507C63.477,101.507 62.887,101.257 62.427,100.757C61.967,100.257 61.737,99.567 61.737,98.687C61.737,98.114 61.834,97.634 62.027,97.247C62.221,96.861 62.494,96.547 62.847,96.307C63.201,96.067 63.621,95.897 64.107,95.797C64.594,95.697 65.137,95.647 65.737,95.647C65.871,95.647 66.004,95.647 66.137,95.647C66.271,95.647 66.411,95.654 66.557,95.667C66.597,95.254 66.617,94.887 66.617,94.567C66.617,93.807 66.504,93.274 66.277,92.967C66.051,92.661 65.637,92.507 65.037,92.507C64.664,92.507 64.257,92.564 63.817,92.677C63.377,92.791 63.011,92.934 62.717,93.107L62.237,91.967ZM66.577,96.807C66.444,96.794 66.311,96.784 66.177,96.777C66.044,96.771 65.911,96.767 65.777,96.767C65.457,96.767 65.144,96.794 64.837,96.847C64.531,96.901 64.257,96.994 64.017,97.127C63.777,97.261 63.587,97.441 63.447,97.667C63.307,97.894 63.237,98.181 63.237,98.527C63.237,99.061 63.367,99.474 63.627,99.767C63.887,100.061 64.224,100.207 64.637,100.207C65.197,100.207 65.631,100.074 65.937,99.807C66.244,99.541 66.457,99.247 66.577,98.927L66.577,96.807Z" style="fill-rule:nonzero;"/>
        <path d="M71.877,98.987C71.877,99.454 71.941,99.787 72.067,99.987C72.194,100.187 72.371,100.287 72.597,100.287C72.877,100.287 73.204,100.214 73.577,100.067L73.717,101.227C73.544,101.334 73.301,101.421 72.987,101.487C72.674,101.554 72.391,101.587 72.137,101.587C71.631,101.587 71.221,101.431 70.907,101.117C70.594,100.804 70.437,100.254 70.437,99.467L70.437,87.367L71.877,87.367L71.877,98.987Z" style="fill-rule:nonzero;"/>
        <path d="M79.337,87.367C79.551,87.327 79.787,87.297 80.047,87.277C80.307,87.257 80.571,87.244 80.837,87.237C81.104,87.231 81.367,87.224 81.627,87.217C81.887,87.211 82.131,87.207 82.357,87.207C83.331,87.207 84.157,87.374 84.837,87.707C85.517,88.041 86.071,88.517 86.497,89.137C86.924,89.757 87.231,90.501 87.417,91.367C87.604,92.234 87.697,93.201 87.697,94.267C87.697,95.227 87.607,96.147 87.427,97.027C87.247,97.907 86.944,98.681 86.517,99.347C86.091,100.014 85.527,100.547 84.827,100.947C84.127,101.347 83.251,101.547 82.197,101.547C82.024,101.547 81.804,101.544 81.537,101.537C81.271,101.531 80.994,101.517 80.707,101.497C80.421,101.477 80.154,101.461 79.907,101.447C79.661,101.434 79.471,101.414 79.337,101.387L79.337,87.367ZM82.437,88.587C82.304,88.587 82.161,88.587 82.007,88.587C81.854,88.587 81.704,88.594 81.557,88.607C81.411,88.621 81.274,88.634 81.147,88.647C81.021,88.661 80.917,88.674 80.837,88.687L80.837,100.087C80.891,100.101 80.987,100.111 81.127,100.117C81.267,100.124 81.414,100.131 81.567,100.137C81.721,100.144 81.867,100.151 82.007,100.157C82.147,100.164 82.251,100.167 82.317,100.167C83.051,100.167 83.664,100.007 84.157,99.687C84.651,99.367 85.041,98.937 85.327,98.397C85.614,97.857 85.817,97.231 85.937,96.517C86.057,95.804 86.117,95.047 86.117,94.247C86.117,93.541 86.064,92.847 85.957,92.167C85.851,91.487 85.661,90.884 85.387,90.357C85.114,89.831 84.741,89.404 84.267,89.077C83.794,88.751 83.184,88.587 82.437,88.587Z" style="fill-rule:nonzero;"/>
        <path d="M95.717,100.687C95.397,100.981 94.991,101.207 94.497,101.367C94.004,101.527 93.484,101.607 92.937,101.607C92.311,101.607 91.767,101.484 91.307,101.237C90.847,100.991 90.467,100.637 90.167,100.177C89.867,99.717 89.647,99.167 89.507,98.527C89.367,97.887 89.297,97.167 89.297,96.367C89.297,94.661 89.611,93.361 90.237,92.467C90.864,91.574 91.751,91.127 92.897,91.127C93.271,91.127 93.641,91.174 94.007,91.267C94.374,91.361 94.704,91.547 94.997,91.827C95.291,92.107 95.527,92.501 95.707,93.007C95.887,93.514 95.977,94.174 95.977,94.987C95.977,95.214 95.967,95.457 95.947,95.717C95.927,95.977 95.904,96.247 95.877,96.527L90.797,96.527C90.797,97.101 90.844,97.621 90.937,98.087C91.031,98.554 91.177,98.951 91.377,99.277C91.577,99.604 91.834,99.857 92.147,100.037C92.461,100.217 92.851,100.307 93.317,100.307C93.677,100.307 94.034,100.241 94.387,100.107C94.741,99.974 95.011,99.814 95.197,99.627L95.717,100.687ZM94.597,95.327C94.624,94.327 94.484,93.594 94.177,93.127C93.871,92.661 93.451,92.427 92.917,92.427C92.304,92.427 91.817,92.661 91.457,93.127C91.097,93.594 90.884,94.327 90.817,95.327L94.597,95.327Z" style="fill-rule:nonzero;"/>
        <path d="M96.997,91.367L98.217,91.367L98.217,89.387L99.657,88.927L99.657,91.367L101.817,91.367L101.817,92.667L99.657,92.667L99.657,98.627C99.657,99.214 99.727,99.637 99.867,99.897C100.007,100.157 100.237,100.287 100.557,100.287C100.824,100.287 101.054,100.257 101.247,100.197C101.441,100.137 101.651,100.061 101.877,99.967L102.157,101.107C101.864,101.254 101.541,101.371 101.187,101.457C100.834,101.544 100.464,101.587 100.077,101.587C99.411,101.587 98.934,101.371 98.647,100.937C98.361,100.504 98.217,99.801 98.217,98.827L98.217,92.667L96.997,92.667L96.997,91.367Z" style="fill-rule:nonzero;"/>
        <path d="M103.397,91.967C103.784,91.727 104.254,91.541 104.807,91.407C105.361,91.274 105.944,91.207 106.557,91.207C107.117,91.207 107.567,91.291 107.907,91.457C108.247,91.624 108.514,91.851 108.707,92.137C108.901,92.424 109.027,92.751 109.087,93.117C109.147,93.484 109.177,93.867 109.177,94.267C109.177,95.067 109.161,95.847 109.127,96.607C109.094,97.367 109.077,98.087 109.077,98.767C109.077,99.274 109.094,99.744 109.127,100.177C109.161,100.611 109.224,101.021 109.317,101.407L108.217,101.407L107.877,100.227L107.797,100.227C107.597,100.574 107.304,100.874 106.917,101.127C106.531,101.381 106.011,101.507 105.357,101.507C104.637,101.507 104.047,101.257 103.587,100.757C103.127,100.257 102.897,99.567 102.897,98.687C102.897,98.114 102.994,97.634 103.187,97.247C103.381,96.861 103.654,96.547 104.007,96.307C104.361,96.067 104.781,95.897 105.267,95.797C105.754,95.697 106.297,95.647 106.897,95.647C107.031,95.647 107.164,95.647 107.297,95.647C107.431,95.647 107.571,95.654 107.717,95.667C107.757,95.254 107.777,94.887 107.777,94.567C107.777,93.807 107.664,93.274 107.437,92.967C107.211,92.661 106.797,92.507 106.197,92.507C105.824,92.507 105.417,92.564 104.977,92.677C104.537,92.791 104.171,92.934 103.877,93.107L103.397,91.967ZM107.737,96.807C107.604,96.794 107.471,96.784 107.337,96.777C107.204,96.771 107.071,96.767 106.937,96.767C106.617,96.767 106.304,96.794 105.997,96.847C105.691,96.901 105.417,96.994 105.177,97.127C104.937,97.261 104.747,97.441 104.607,97.667C104.467,97.894 104.397,98.181 104.397,98.527C104.397,99.061 104.527,99.474 104.787,99.767C105.047,100.061 105.384,100.207 105.797,100.207C106.357,100.207 106.791,100.074 107.097,99.807C107.404,99.541 107.617,99.247 107.737,98.927L107.737,96.807Z" style="fill-rule:nonzero;"/>
        <path d="M111.737,91.367L113.177,91.367L113.177,101.367L111.737,101.367L111.737,91.367ZM111.477,88.327C111.477,88.007 111.567,87.747 111.747,87.547C111.927,87.347 112.164,87.247 112.457,87.247C112.751,87.247 112.994,87.344 113.187,87.537C113.381,87.731 113.477,87.994 113.477,88.327C113.477,88.647 113.381,88.897 113.187,89.077C112.994,89.257 112.751,89.347 112.457,89.347C112.164,89.347 111.927,89.254 111.747,89.067C111.567,88.881 111.477,88.634 111.477,88.327Z" style="fill-rule:nonzero;"/>
        <path d="M117.377,98.987C117.377,99.454 117.441,99.787 117.567,99.987C117.694,100.187 117.871,100.287 118.097,100.287C118.377,100.287 118.704,100.214 119.077,100.067L119.217,101.227C119.044,101.334 118.801,101.421 118.487,101.487C118.174,101.554 117.891,101.587 117.637,101.587C117.131,101.587 116.721,101.431 116.407,101.117C116.094,100.804 115.937,100.254 115.937,99.467L115.937,87.367L117.377,87.367L117.377,98.987Z" style="fill-rule:nonzero;"/>
        <path d="M120.337,99.727C120.604,99.887 120.921,100.024 121.287,100.137C121.654,100.251 122.031,100.307 122.417,100.307C122.857,100.307 123.231,100.197 123.537,99.977C123.844,99.757 123.997,99.401 123.997,98.907C123.997,98.494 123.904,98.154 123.717,97.887C123.531,97.621 123.294,97.381 123.007,97.167C122.721,96.954 122.411,96.757 122.077,96.577C121.744,96.397 121.434,96.181 121.147,95.927C120.861,95.674 120.624,95.374 120.437,95.027C120.251,94.681 120.157,94.241 120.157,93.707C120.157,92.854 120.387,92.211 120.847,91.777C121.307,91.344 121.957,91.127 122.797,91.127C123.344,91.127 123.817,91.177 124.217,91.277C124.617,91.377 124.964,91.514 125.257,91.687L124.877,92.887C124.624,92.754 124.331,92.644 123.997,92.557C123.664,92.471 123.324,92.427 122.977,92.427C122.497,92.427 122.147,92.527 121.927,92.727C121.707,92.927 121.597,93.241 121.597,93.667C121.597,94.001 121.691,94.284 121.877,94.517C122.064,94.751 122.301,94.964 122.587,95.157C122.874,95.351 123.184,95.547 123.517,95.747C123.851,95.947 124.161,96.184 124.447,96.457C124.734,96.731 124.971,97.057 125.157,97.437C125.344,97.817 125.437,98.294 125.437,98.867C125.437,99.241 125.377,99.594 125.257,99.927C125.137,100.261 124.954,100.551 124.707,100.797C124.461,101.044 124.154,101.241 123.787,101.387C123.421,101.534 122.991,101.607 122.497,101.607C121.911,101.607 121.404,101.551 120.977,101.437C120.551,101.324 120.191,101.174 119.897,100.987L120.337,99.727Z" style="fill-rule:nonzero;"/>
    </g>
</svg>
