<?xml version="1.0" encoding="UTF-8" standalone="no"?><!DOCTYPE svg PUBLIC "-//W3C//DTD SVG 1.1//EN" "http://www.w3.org/Graphics/SVG/1.1/DTD/svg11.dtd"><svg width="100%" height="100%" viewBox="0 0 120 48" version="1.1" xmlns="http://www.w3.org/2000/svg" xmlns:xlink="http://www.w3.org/1999/xlink" xml:space="preserve" xmlns:serif="http://www.serif.com/" style="fill-rule:evenodd;clip-rule:evenodd;stroke-linejoin:round;stroke-miterlimit:1.41421;"><path d="M78.007,28.764l2.535,6.887l-7.606,-1.582l5.071,-5.305Z" style="fill:#ffc200;"/><path d="M41.202,23.735l5.355,7.908l-10.709,0l5.354,-7.908Z" style="fill:#ffc200;"/><path d="M46.544,31.674l1.84,-11.789l-18.167,0.184l-0.92,5.895l17.247,5.71Z" style="fill:#ff7b00;"/><path d="M72.939,34.1l0.127,-11.31l19.163,3.044l-0.063,5.655l-19.227,2.611Z" style="fill:#ff7b00;"/><path d="M92.182,31.427l0.043,-21.157l-62.886,5.161l-0.022,10.578l62.865,5.418Z" style="fill:#ffac00;"/><g transform="matrix(0.254473,-0.000206393,0.000206393,0.254473,-61.3767,-52.922)"><text x="386.203px" y="304.497px" style="font-family:'ArialMT', 'Arial', sans-serif;font-size:40px;">ab</text><text x="430.695px" y="304.497px" style="font-family:'ArialMT', 'Arial', sans-serif;font-size:42.441px;">o</text><text x="454.299px" y="304.497px" style="font-family:'ArialMT', 'Arial', sans-serif;font-size:45px;">u</text><text x="479.326px" y="304.497px" style="font-family:'ArialMT', 'Arial', sans-serif;font-size:48px;">t m</text><text x="545.982px" y="304.497px" style="font-family:'ArialMT', 'Arial', sans-serif;font-size:53px;">e</text></g></svg>